<?xml version="1.0" encoding="utf-8"?>
<!-- Generator: Adobe Illustrator 20.1.0, SVG Export Plug-In . SVG Version: 6.00 Build 0)  -->
<svg version="1.1" id="Layer_1" xmlns="http://www.w3.org/2000/svg" xmlns:xlink="http://www.w3.org/1999/xlink" x="0px" y="0px"
	 viewBox="0 0 69 80" style="enable-background:new 0 0 69 80;" xml:space="preserve">
<style type="text/css">
	.st0{fill:#FFFFFF;}
	.st1{fill:#3C3B3B;}
</style>
<title>Asset 25</title>
<desc>Created with Sketch.</desc>
<g id="web">
	<g id="Services-" transform="translate(-513.000000, -1588.000000)">
		<g id="Asset-25" transform="translate(513.000000, 1588.000000)">
			<path id="Rectangle-path" class="st0" d="M5.5,30.1h60.4c0.8,0,1.5,0.7,1.5,1.5v45.2c0,0.8-0.7,1.5-1.5,1.5H5.5
				c-0.8,0-1.5-0.7-1.5-1.5V31.6C4,30.8,4.7,30.1,5.5,30.1z"/>
			<path id="Shape" class="st1" d="M64.8,79.1H6.5c-1.9,0-3.4-1.5-3.4-3.3V32.5c0-1.8,1.5-3.3,3.4-3.3h58.3c1.9,0,3.4,1.5,3.4,3.3
				v43.3C68.2,77.6,66.7,79.1,64.8,79.1z M6.5,31c-0.9,0-1.7,0.7-1.7,1.7V76c0,0.9,0.8,1.7,1.7,1.7h58.3c0.9,0,1.7-0.7,1.7-1.7V32.7
				c0-0.9-0.8-1.7-1.7-1.7H6.5z"/>
			<path id="Shape_1_" class="st0" d="M4.4,39.6h62.5"/>
			<path id="Shape_2_" class="st1" d="M66.9,40.5H4.4c-0.5,0-0.9-0.4-0.9-0.8c0-0.5,0.4-0.8,0.9-0.8h62.5c0.5,0,0.9,0.4,0.9,0.8
				C67.8,40.1,67.4,40.5,66.9,40.5z"/>
			<path id="Shape_3_" class="st0" d="M14,30.1l-6.7,9.5"/>
			<path id="Shape_4_" class="st1" d="M7.4,40.5c-0.3,0-0.6-0.2-0.7-0.4s-0.1-0.6,0-0.9l6.7-9.5c0.3-0.4,0.8-0.4,1.2-0.2
				c0.4,0.3,0.5,0.7,0.2,1.1l-6.7,9.5C7.9,40.3,7.6,40.5,7.4,40.5L7.4,40.5z"/>
			<path id="Shape_5_" class="st0" d="M26,30.1l-6.7,9.5"/>
			<path id="Shape_6_" class="st1" d="M19.3,40.5c-0.3,0-0.6-0.2-0.7-0.4s-0.1-0.6,0-0.9l6.7-9.5c0.3-0.4,0.8-0.4,1.2-0.2
				c0.4,0.3,0.5,0.7,0.2,1.1L20,40.1C19.8,40.3,19.5,40.5,19.3,40.5z"/>
			<path id="Shape_7_" class="st0" d="M37.9,30.1l-6.7,9.5"/>
			<path id="Shape_8_" class="st1" d="M31.2,40.5c-0.3,0-0.6-0.2-0.7-0.4s-0.1-0.6,0-0.9l6.7-9.5c0.3-0.4,0.8-0.4,1.2-0.2
				c0.4,0.3,0.5,0.7,0.2,1.1l-6.7,9.5C31.7,40.3,31.5,40.5,31.2,40.5z"/>
			<path id="Shape_9_" class="st0" d="M49.8,30.1l-6.7,9.5"/>
			<path id="Shape_10_" class="st1" d="M43.1,40.5c-0.3,0-0.6-0.2-0.7-0.4c-0.1-0.3-0.1-0.6,0-0.9l6.7-9.5c0.3-0.4,0.8-0.4,1.2-0.2
				c0.4,0.3,0.5,0.7,0.2,1.1l-6.7,9.5C43.6,40.3,43.4,40.5,43.1,40.5z"/>
			<path id="Shape_11_" class="st0" d="M61.7,30.1L55,39.6"/>
			<path id="Shape_12_" class="st1" d="M55,40.5c-0.3,0-0.6-0.2-0.7-0.4c-0.1-0.3-0.1-0.6,0-0.9l6.7-9.5c0.3-0.4,0.8-0.4,1.2-0.2
				c0.4,0.3,0.5,0.7,0.2,1.1l-6.7,9.5C55.6,40.3,55.3,40.5,55,40.5z"/>
			<path id="Rectangle-path_1_" class="st0" d="M1.6,21.1L58.3,0.4c0.8-0.3,1.6,0.1,1.9,0.9l2.2,6.2c0.3,0.8-0.1,1.6-0.9,1.9L4.8,30
				c-0.8,0.3-1.6-0.1-1.9-0.9L0.7,23C0.4,22.2,0.8,21.4,1.6,21.1z"/>
			<path id="Shape_13_" class="st1" d="M5,30.4c-1.4,0-2.6-0.8-3.1-2.1L0.2,24c-0.6-1.7,0.3-3.5,2-4.2L57,0.2c1.7-0.6,3.6,0.3,4.3,2
				L63,6.5c0.6,1.7-0.3,3.6-2.1,4.2L6.1,30.2C5.7,30.3,5.3,30.4,5,30.4z M58.1,1.7c-0.2,0-0.4,0-0.6,0.1L2.8,21.3
				c-0.8,0.3-1.2,1.2-1,2l1.6,4.3c0.3,0.8,1.2,1.2,2.1,1L60.3,9.1l0,0c0.8-0.3,1.2-1.2,1-2.1l-1.6-4.3C59.4,2.1,58.8,1.7,58.1,1.7z"
				/>
			<path id="Shape_14_" class="st0" d="M10.7,17.6l-3,11.2"/>
			<path id="Shape_15_" class="st1" d="M7.7,29.6H7.4c-0.2-0.1-0.4-0.2-0.5-0.4c-0.1-0.2-0.1-0.4-0.1-0.7l3-11.1
				c0.1-0.3,0.3-0.5,0.6-0.6c0.3-0.1,0.6,0,0.9,0.2s0.3,0.5,0.2,0.8L8.5,29C8.4,29.3,8.1,29.6,7.7,29.6z"/>
			<path id="Shape_16_" class="st0" d="M21.8,13.6l-3,11.1"/>
			<path id="Shape_17_" class="st1" d="M18.9,25.6h-0.2c-0.2-0.1-0.4-0.2-0.5-0.4C18,25,18,24.8,18,24.6l3-11.3
				c0.1-0.5,0.6-0.7,1.1-0.6c0.5,0.1,0.8,0.6,0.6,1l-3,11.2C19.6,25.4,19.2,25.6,18.9,25.6z"/>
			<path id="Shape_18_" class="st0" d="M33,9.6l-3,11.1"/>
			<path id="Shape_19_" class="st1" d="M30.1,21.7h-0.2c-0.2-0.1-0.4-0.2-0.5-0.4c-0.1-0.2-0.1-0.4-0.1-0.6l3-11.1
				c0.1-0.5,0.6-0.7,1.1-0.6c0.5,0.1,0.8,0.6,0.6,1l-3,11.2C30.8,21.4,30.5,21.7,30.1,21.7z"/>
			<path id="Shape_20_" class="st0" d="M44.2,5.6l-3,11.1"/>
			<path id="Shape_21_" class="st1" d="M41.3,17.6H41c-0.2-0.1-0.4-0.2-0.5-0.4c-0.1-0.2-0.1-0.4-0.1-0.6l3-11.2
				C43.5,5,44,4.7,44.5,4.8c0.5,0.1,0.8,0.6,0.6,1l-3,11.1C42,17.4,41.6,17.6,41.3,17.6z"/>
			<path id="Shape_22_" class="st0" d="M55.4,1.6l-3,11.2"/>
			<path id="Shape_23_" class="st1" d="M52.4,13.6h-0.2c-0.2-0.1-0.4-0.2-0.5-0.4s-0.1-0.4-0.1-0.6l3-11.2c0.1-0.3,0.3-0.5,0.6-0.6
				s0.6,0,0.9,0.2c0.2,0.2,0.3,0.5,0.2,0.8l-3,11.2C53.2,13.4,52.8,13.6,52.4,13.6z"/>
			<polygon id="Shape_24_" class="st0" points="35.6,49.6 38.6,55.5 45.3,56.5 40.5,61.1 41.6,67.7 35.6,64.6 29.7,67.7 30.8,61.1 
				26,56.5 32.6,55.5 			"/>
			<path id="Shape_25_" class="st1" d="M41.6,68.5c-0.1,0-0.3,0-0.4-0.1l-5.6-2.9l-5.6,2.8c-0.3,0.2-0.6,0.1-0.9-0.1
				c-0.3-0.2-0.4-0.5-0.3-0.8l1.1-6.1L25.4,57c-0.2-0.2-0.3-0.6-0.2-0.9c0.1-0.3,0.4-0.5,0.7-0.6l6.2-0.9l2.8-5.5
				c0.2-0.3,0.5-0.4,0.8-0.4c0.3,0,0.6,0.2,0.8,0.4l2.7,5.6l6.2,0.9c0.3,0,0.6,0.3,0.7,0.6c0.1,0.3,0,0.6-0.2,0.9l-4.5,4.3l1.2,6.1
				c0,0.2,0,0.5-0.2,0.7C42.2,68.4,42,68.5,41.6,68.5L41.6,68.5z M35.6,63.7c0.1,0,0.3,0,0.4,0.1l4.5,2.3l-0.9-4.9
				c0-0.3,0-0.5,0.2-0.7l3.6-3.4l-5-0.7c-0.3,0-0.5-0.2-0.6-0.5l-2.2-4.4l-2.2,4.4c-0.1,0.2-0.4,0.4-0.6,0.4l-5,0.7l3.6,3.4
				c0.2,0.2,0.3,0.5,0.2,0.7l-0.9,4.9l4.5-2.3C35.4,63.8,35.5,63.7,35.6,63.7z"/>
		</g>
	</g>
</g>
</svg>
