<?xml version="1.0" encoding="UTF-8"?>
<svg width="18px" height="18px" viewBox="0 0 18 18" version="1.1" xmlns="http://www.w3.org/2000/svg" xmlns:xlink="http://www.w3.org/1999/xlink">
    <!-- Generator: sketchtool 46.2 (44496) - http://www.bohemiancoding.com/sketch -->
    <title>A6A68F6E-ED1C-4A42-AEE7-0953C423F781</title>
    <desc>Created with sketchtool.</desc>
    <defs></defs>
    <g id="Symbols" stroke="none" stroke-width="1" fill="none" fill-rule="evenodd">
        <g id="icon/calendar" fill="#9a9a9a">
            <path d="M14.8333333,16 L3.16666667,16 C2.52233446,16 2,15.4776655 2,14.8333333 L2,4.33333333 C2,3.68900113 2.52233446,3.16666667 3.16666667,3.16666667 L4.33333333,3.16666667 L4.33333333,4.33333333 L3.16666667,4.33333333 L3.16666667,14.8333333 L14.8333333,14.8333333 L14.8333333,4.33333333 L13.6666667,4.33333333 L13.6666667,3.16666667 L14.8333333,3.16666667 C15.4776655,3.16666667 16,3.68900113 16,4.33333333 L16,14.8333333 C16,15.4776655 15.4776655,16 14.8333333,16 L14.8333333,16 Z M11.9166667,11.9166667 L13.0833333,11.9166667 C13.4054994,11.9166667 13.6666667,12.1778339 13.6666667,12.5 C13.6666667,12.8221661 13.4054994,13.0833333 13.0833333,13.0833333 L11.9166667,13.0833333 C11.5945006,13.0833333 11.3333333,12.8221661 11.3333333,12.5 C11.3333333,12.1778339 11.5945006,11.9166667 11.9166667,11.9166667 L11.9166667,11.9166667 Z M11.9166667,9.58333333 L13.0833333,9.58333333 C13.4054994,9.58333333 13.6666667,9.84450056 13.6666667,10.1666667 C13.6666667,10.4888328 13.4054994,10.75 13.0833333,10.75 L11.9166667,10.75 C11.5945006,10.75 11.3333333,10.4888328 11.3333333,10.1666667 C11.3333333,9.84450056 11.5945006,9.58333333 11.9166667,9.58333333 L11.9166667,9.58333333 Z M13.0833333,8.41666667 L11.9166667,8.41666667 C11.5945006,8.41666667 11.3333333,8.15549944 11.3333333,7.83333333 C11.3333333,7.51116723 11.5945006,7.25 11.9166667,7.25 L13.0833333,7.25 C13.4054994,7.25 13.6666667,7.51116723 13.6666667,7.83333333 C13.6666667,8.15549944 13.4054994,8.41666667 13.0833333,8.41666667 L13.0833333,8.41666667 Z M12.5,5.5 C12.1778339,5.5 11.9166667,5.23883277 11.9166667,4.91666667 L11.9166667,2.58333333 C11.9166667,2.26116723 12.1778339,2 12.5,2 C12.8221661,2 13.0833333,2.26116723 13.0833333,2.58333333 L13.0833333,4.91666667 C13.0833333,5.23883277 12.8221661,5.5 12.5,5.5 L12.5,5.5 Z M10.1666667,3.16666667 L11.3333333,3.16666667 L11.3333333,4.33333333 L10.1666667,4.33333333 L10.1666667,3.16666667 L10.1666667,3.16666667 Z M8.41666667,11.9166667 L9.58333333,11.9166667 C9.90549944,11.9166667 10.1666667,12.1778339 10.1666667,12.5 C10.1666667,12.8221661 9.90549944,13.0833333 9.58333333,13.0833333 L8.41666667,13.0833333 C8.09450056,13.0833333 7.83333333,12.8221661 7.83333333,12.5 C7.83333333,12.1778339 8.09450056,11.9166667 8.41666667,11.9166667 L8.41666667,11.9166667 Z M8.41666667,9.58333333 L9.58333333,9.58333333 C9.90549944,9.58333333 10.1666667,9.84450056 10.1666667,10.1666667 C10.1666667,10.4888328 9.90549944,10.75 9.58333333,10.75 L8.41666667,10.75 C8.09450056,10.75 7.83333333,10.4888328 7.83333333,10.1666667 C7.83333333,9.84450056 8.09450056,9.58333333 8.41666667,9.58333333 L8.41666667,9.58333333 Z M9.58333333,8.41666667 L8.41666667,8.41666667 C8.09450056,8.41666667 7.83333333,8.15549944 7.83333333,7.83333333 C7.83333333,7.51116723 8.09450056,7.25 8.41666667,7.25 L9.58333333,7.25 C9.90549944,7.25 10.1666667,7.51116723 10.1666667,7.83333333 C10.1666667,8.15549944 9.90549944,8.41666667 9.58333333,8.41666667 L9.58333333,8.41666667 Z M9,5.5 C8.6778339,5.5 8.41666667,5.23883277 8.41666667,4.91666667 L8.41666667,2.58333333 C8.41666667,2.26116723 8.6778339,2 9,2 C9.3221661,2 9.58333333,2.26116723 9.58333333,2.58333333 L9.58333333,4.91666667 C9.58333333,5.23883277 9.3221661,5.5 9,5.5 L9,5.5 Z M6.66666667,3.16666667 L7.83333333,3.16666667 L7.83333333,4.33333333 L6.66666667,4.33333333 L6.66666667,3.16666667 L6.66666667,3.16666667 Z M4.91666667,11.9166667 L6.08333333,11.9166667 C6.40549944,11.9166667 6.66666667,12.1778339 6.66666667,12.5 C6.66666667,12.8221661 6.40549944,13.0833333 6.08333333,13.0833333 L4.91666667,13.0833333 C4.59450056,13.0833333 4.33333333,12.8221661 4.33333333,12.5 C4.33333333,12.1778339 4.59450056,11.9166667 4.91666667,11.9166667 L4.91666667,11.9166667 Z M4.91666667,9.58333333 L6.08333333,9.58333333 C6.40549944,9.58333333 6.66666667,9.84450056 6.66666667,10.1666667 C6.66666667,10.4888328 6.40549944,10.75 6.08333333,10.75 L4.91666667,10.75 C4.59450056,10.75 4.33333333,10.4888328 4.33333333,10.1666667 C4.33333333,9.84450056 4.59450056,9.58333333 4.91666667,9.58333333 L4.91666667,9.58333333 Z M6.08333333,8.41666667 L4.91666667,8.41666667 C4.59450056,8.41666667 4.33333333,8.15549944 4.33333333,7.83333333 C4.33333333,7.51116723 4.59450056,7.25 4.91666667,7.25 L6.08333333,7.25 C6.40549944,7.25 6.66666667,7.51116723 6.66666667,7.83333333 C6.66666667,8.15549944 6.40549944,8.41666667 6.08333333,8.41666667 L6.08333333,8.41666667 Z M5.5,5.5 C5.1778339,5.5 4.91666667,5.23883277 4.91666667,4.91666667 L4.91666667,2.58333333 C4.91666667,2.26116723 5.1778339,2 5.5,2 C5.8221661,2 6.08333333,2.26116723 6.08333333,2.58333333 L6.08333333,4.91666667 C6.08333333,5.23883277 5.8221661,5.5 5.5,5.5 L5.5,5.5 Z" id="calendar"></path>
        </g>
    </g>
</svg>