<?xml version="1.0" encoding="utf-8"?>
<!-- Generator: Adobe Illustrator 21.1.0, SVG Export Plug-In . SVG Version: 6.00 Build 0)  -->
<svg version="1.1" id="Layer_1" xmlns="http://www.w3.org/2000/svg" xmlns:xlink="http://www.w3.org/1999/xlink" x="0px" y="0px"
	 viewBox="0 0 19.9 20.3" style="enable-background:new 0 0 19.9 20.3;" xml:space="preserve">
<style type="text/css">
	.st0{fill:#FA506F;}
</style>
<g>
	<circle style="fill:#000;" class="st0" cx="14.9" cy="7.5" r="0.9"/>
	<circle style="fill:#000;" class="st0" cx="14.9" cy="11.6" r="0.9"/>
	<circle style="fill:#000;" class="st0" cx="14.9" cy="15.7" r="0.9"/>
	<circle style="fill:#000;" class="st0" cx="9.7" cy="11.6" r="0.9"/>
	<circle style="fill:#000;" class="st0" cx="4.5" cy="7.5" r="0.9"/>
	<circle style="fill:#000;" class="st0" cx="4.5" cy="11.6" r="0.9"/>
	<circle style="fill:#000;" class="st0" cx="4.5" cy="15.7" r="0.9"/>
	<circle style="fill:#000;" class="st0" cx="9.7" cy="15.7" r="0.9"/>
	<circle style="fill:#000;" class="st0" cx="9.7" cy="7.5" r="0.9"/>
	<path style="fill:#000;" class="st0" d="M16.7,1.5h-0.9V0.8C15.8,0.4,15.5,0,15,0c-0.4,0-0.8,0.3-0.8,0.8v0.7h-3.3h-0.1l0,0V0.8C10.8,0.3,10.4,0,10,0
		S9.2,0.4,9.2,0.8v0.7H5.7V0.8C5.7,0.3,5.3,0,4.9,0C4.4,0,4.1,0.4,4.1,0.8v0.7H3.2C1.4,1.5,0,3,0,4.7v12.4c0,1.8,1.5,3.2,3.2,3.2
		h7.6h0.1h5.8c1.7,0,3.2-1.4,3.2-3.2V4.7C19.9,3,18.5,1.5,16.7,1.5z M18.5,17.2c0,0.8-0.6,1.5-1.5,1.5h-6.1h-0.1H2.9
		c-0.9,0-1.5-0.7-1.5-1.5V4.8c0-0.9,0.7-1.5,1.5-1.5h1.2v0.6c0,0.5,0.4,0.8,0.8,0.8c0.5,0,0.8-0.4,0.8-0.8V3.3h3.5v0.6
		c0,0.5,0.4,0.8,0.8,0.8c0.5,0,0.8-0.4,0.8-0.8V3.3l0,0h0.1h3.3v0.6c0,0.4,0.3,0.8,0.8,0.8c0.4,0,0.8-0.3,0.8-0.8V3.3H17
		c0.8,0,1.5,0.6,1.5,1.5L18.5,17.2L18.5,17.2z"/>
</g>
</svg>
