<svg id="Layer_1" data-name="Layer 1" xmlns="http://www.w3.org/2000/svg" xmlns:xlink="http://www.w3.org/1999/xlink" viewBox="0 0 215.99 310.48"><defs><style>.cls-1{fill:url(#linear-gradient);}.cls-2{fill:url(#linear-gradient-2);}.cls-3{fill:url(#linear-gradient-3);}.cls-4{fill:url(#linear-gradient-4);}</style><linearGradient id="linear-gradient" x1="36.95" y1="204.29" x2="190.98" y2="106.19" gradientUnits="userSpaceOnUse"><stop offset="0.64"/><stop offset="1"/></linearGradient><linearGradient id="linear-gradient-2" x1="91.89" y1="169.51" x2="135.09" y2="142" xlink:href="#linear-gradient"/><linearGradient id="linear-gradient-3" x1="58.72" y1="190.43" x2="169.21" y2="120.05" xlink:href="#linear-gradient"/><linearGradient id="linear-gradient-4" x1="81.35" y1="176.02" x2="146.58" y2="134.47" xlink:href="#linear-gradient"/></defs><title>bracelet svg</title><path class="cls-1" d="M174.4,102.38l-.06-.16c-.11-.2-10.84-19.6-14.67-38.61a4,4,0,0,0-3.93-3.24h-8.12l-4.21-27.11a11.09,11.09,0,0,0-11-9.41H95.52a11.08,11.08,0,0,0-11,9.43L80.31,60.37H72.19a4.05,4.05,0,0,0-4,3.24C64.43,82.62,53.7,102,53.6,102.22a1.11,1.11,0,0,0-.07.16,80.13,80.13,0,0,0,0,105.72,1.22,1.22,0,0,0,.07.17c.1.19,10.83,19.59,14.64,38.62a4,4,0,0,0,4,3.22h8.12l4.21,27.1a11.1,11.1,0,0,0,11,9.43h36.89a11.09,11.09,0,0,0,11-9.43l4.21-27.1h8.12a4,4,0,0,0,3.93-3.22c3.83-19,14.56-38.43,14.67-38.62l.06-.17a80.13,80.13,0,0,0,0-105.72ZM148,68.42h4.55a141.1,141.1,0,0,0,6.68,20.43A80.11,80.11,0,0,0,148,82.46ZM88,63.56l0-.12,4.5-28.93a3.06,3.06,0,0,1,3-2.61h36.89a3.06,3.06,0,0,1,3.05,2.61L140,63.44l0,.12v0L139.9,79.2A80.19,80.19,0,0,0,88,79.2L88,63.59ZM75.43,68.42H80v14a78.28,78.28,0,0,0-11.23,6.41A141.79,141.79,0,0,0,75.43,68.42ZM80,242.06H75.43a140.69,140.69,0,0,0-6.68-20.43A80.17,80.17,0,0,0,80,228Zm60,4.85L135.46,276a3.08,3.08,0,0,1-3.05,2.61H95.52a3.07,3.07,0,0,1-3-2.61L88,246.91h0L88,231.28a80,80,0,0,0,51.87,0L140,246.9Zm12.52-4.85H148V228a79.5,79.5,0,0,0,11.22-6.4A142.76,142.76,0,0,0,152.5,242.06ZM114,227.55a72.31,72.31,0,1,1,72.3-72.3A72.38,72.38,0,0,1,114,227.55Z"/><path class="cls-2" d="M126.5,166.12q0-5.61-13-8h-.15a42.36,42.36,0,0,1-10-3.09,14,14,0,0,1-6.15-5.14,11.94,11.94,0,0,1-2-6.45q0-6.41,5.64-10.55a21.84,21.84,0,0,1,19.66-3,28.86,28.86,0,0,1,5.05,2.06q1.66,1,4.39,2.73a3.86,3.86,0,0,1,1.59,2.44,3.63,3.63,0,0,1-.52,2.84,3.67,3.67,0,0,1-2.4,1.62,3.61,3.61,0,0,1-2.87-.55,38.49,38.49,0,0,0-6.16-3.54,14.05,14.05,0,0,0-5.72-1.18,13.08,13.08,0,0,0-8,2.28q-3.1,2.29-3.1,4.87a3.71,3.71,0,0,0,.59,2.14q2.06,3.41,11.14,5.09h.14a46.69,46.69,0,0,1,10.18,3.1q9.15,4.5,9.15,12.39,0,6.87-6,11.25a23.09,23.09,0,0,1-13.94,4.39q-9.66-.07-18.88-7.38a3.69,3.69,0,0,1-1.37-2.58,3.62,3.62,0,0,1,.78-2.8,3.66,3.66,0,0,1,2.58-1.36,3.48,3.48,0,0,1,2.8.84q7.08,5.76,14.09,5.68a14.71,14.71,0,0,0,9-2.54Q126.51,169.07,126.5,166.12Z"/><path class="cls-3" d="M114,220.76a65.52,65.52,0,1,1,65.51-65.52A65.59,65.59,0,0,1,114,220.76Zm0-125.4a59.88,59.88,0,1,0,59.88,59.88A60,60,0,0,0,114,95.36Z"/><path class="cls-4" d="M102.51,206.23a3.67,3.67,0,0,1-.86-.1,3.35,3.35,0,0,1-2.48-4.06l23.06-95.24a3.36,3.36,0,1,1,6.53,1.58L105.7,203.66A3.37,3.37,0,0,1,102.51,206.23Z"/></svg>