<?xml version="1.0" encoding="UTF-8"?>
<svg width="30px" height="30px" viewBox="0 0 30 30" version="1.1" xmlns="http://www.w3.org/2000/svg" xmlns:xlink="http://www.w3.org/1999/xlink">
    <!-- Generator: sketchtool 46.2 (44496) - http://www.bohemiancoding.com/sketch -->
    <title>52573BB4-2A6E-4283-84F8-BF72461198B4</title>
    <desc>Created with sketchtool.</desc>
    <defs></defs>
    <g id="Symbols" stroke="none" stroke-width="1" fill="none" fill-rule="evenodd">
        <g id="footer" transform="translate(-1032.000000, -429.000000)" fill="#FFFFFF">
            <g id="Group-2" transform="translate(1032.000000, 429.000000)">
                <g id="coin">
                    <g id="Capa_1">
                        <g id="Group">
                            <path d="M16.5517241,0 C16.0236207,0 15.5037931,0.0393103448 14.9922414,0.10862069 C14.4584483,0.0372413793 13.9510345,0 13.4482759,0 C10.9225862,0 8.56086207,0.813103448 6.55344828,2.21896552 C6.55293103,2.21948276 6.55189655,2.22 6.55137931,2.22051724 C5.53344828,2.9337931 4.60758621,3.80068966 3.79655172,4.7912069 C3.77224138,4.81344828 3.75413793,4.83931034 3.73448276,4.86568966 C2.96689655,5.81637931 2.30689655,6.88086207 1.77362069,8.03224138 C1.75913793,8.05810345 1.74724138,8.08396552 1.73741379,8.11241379 C1.37017241,8.91724138 1.06344828,9.76293103 0.827586207,10.6443103 C0.804310345,10.6939655 0.793965517,10.7482759 0.787241379,10.8051724 C0.445344828,12.137069 0.25862069,13.5439655 0.25862069,15 C0.25862069,17.2774138 0.709137931,19.4363793 1.51137931,21.3718966 C1.51862069,21.3936207 1.52586207,21.4137931 1.5362069,21.4339655 C2.0162069,22.5791379 2.62086207,23.6441379 3.32896552,24.6077586 C3.34810345,24.6341379 3.36362069,24.662069 3.38741379,24.6843103 C4.10586207,25.6484483 4.92982759,26.507069 5.83810345,27.2394828 C5.86448276,27.2689655 5.89655172,27.2906897 5.92913793,27.3134483 C8.0637931,29.0048276 10.6551724,30 13.4482759,30 C13.9510345,30 14.4584483,29.9627586 14.9922414,29.8913793 C15.5037931,29.9606897 16.0236207,30 16.5517241,30 C23.8246552,30 29.7413793,23.2712069 29.7413793,15 C29.7413793,6.7287931 23.8246552,0 16.5517241,0 L16.5517241,0 Z M11.0787931,1.35775862 C10.9143103,1.44362069 10.7518966,1.53258621 10.5910345,1.62568966 C10.4932759,1.68206897 10.3944828,1.73741379 10.2982759,1.79637931 C10.1565517,1.8837931 10.017931,1.97586207 9.87931034,2.06896552 L8.88310345,2.06896552 C9.63931034,1.71517241 10.4286207,1.43586207 11.2515517,1.26258621 C11.1931034,1.29206897 11.1372414,1.32724138 11.0787931,1.35775862 L11.0787931,1.35775862 Z M5.87586207,23.7931034 L4.02051724,23.7931034 C3.56431034,23.1486207 3.15931034,22.4560345 2.80758621,21.7241379 L4.76689655,21.7241379 C4.84810345,21.9077586 4.93189655,22.0893103 5.01931034,22.2682759 C5.05655172,22.3448276 5.09586207,22.4198276 5.13413793,22.4953448 C5.24068966,22.7043103 5.35137931,22.9096552 5.4662069,23.1118966 C5.50810345,23.1863793 5.54896552,23.2613793 5.59189655,23.3348276 C5.68344828,23.4905172 5.77913793,23.642069 5.87586207,23.7931034 L5.87586207,23.7931034 Z M2.56965517,8.79310345 L4.54913793,8.79310345 C4.45810345,9.01965517 4.37224138,9.2487931 4.29155172,9.48051724 C4.26931034,9.54413793 4.24706897,9.60724138 4.22534483,9.67086207 C4.15034483,9.89327586 4.08103448,10.1177586 4.01534483,10.3448276 L1.995,10.3448276 C2.15948276,9.81155172 2.35189655,9.29431034 2.56965517,8.79310345 L2.56965517,8.79310345 Z M1.29310345,15 C1.29310345,14.6513793 1.31172414,14.307931 1.33344828,13.9655172 L3.39568966,13.9655172 C3.39517241,13.9737931 3.39517241,13.982069 3.39465517,13.9903448 C3.37551724,14.3244828 3.36206897,14.6601724 3.36206897,15 C3.36206897,15.1732759 3.36827586,15.345 3.37344828,15.5172414 L1.31327586,15.5172414 C1.30758621,15.3444828 1.29310345,15.1743103 1.29310345,15 L1.29310345,15 Z M3.43241379,16.5517241 C3.45206897,16.7694828 3.47741379,16.9856897 3.50534483,17.2008621 C3.50741379,17.2163793 3.50844828,17.2324138 3.51051724,17.2484483 C3.5487931,17.5360345 3.59534483,17.8210345 3.64758621,18.1034483 L1.60758621,18.1034483 C1.50672414,17.5955172 1.42706897,17.0787931 1.37586207,16.5517241 L3.43241379,16.5517241 L3.43241379,16.5517241 Z M3.75310345,11.3793103 C3.73965517,11.4408621 3.72827586,11.502931 3.71534483,11.5644828 C3.70137931,11.6322414 3.68741379,11.6994828 3.67396552,11.7672414 C3.61086207,12.092069 3.55448276,12.4194828 3.51051724,12.7515517 C3.50844828,12.767069 3.50741379,12.7831034 3.50534483,12.7991379 C3.49965517,12.8431034 3.49603448,12.887069 3.49034483,12.9310345 L1.43741379,12.9310345 C1.50568966,12.4044828 1.59206897,11.8851724 1.71051724,11.3793103 L3.75310345,11.3793103 L3.75310345,11.3793103 Z M3.87672414,19.137931 C3.89275862,19.2015517 3.90775862,19.2656897 3.92482759,19.3293103 C3.93051724,19.3515517 3.93568966,19.3743103 3.94189655,19.3965517 C4.02724138,19.712069 4.12293103,20.0224138 4.22586207,20.3286207 C4.24706897,20.3922414 4.26982759,20.4553448 4.29206897,20.5189655 C4.31172414,20.5758621 4.33086207,20.6327586 4.35103448,20.6891379 L2.35758621,20.6891379 C2.16155172,20.1868966 1.99293103,19.6686207 1.84913793,19.1374138 L3.87672414,19.1374138 L3.87672414,19.137931 Z M5.59189655,6.66465517 C5.54896552,6.73810345 5.50810345,6.81310345 5.4662069,6.88758621 C5.35137931,7.08982759 5.24068966,7.29568966 5.13413793,7.50413793 C5.09586207,7.57965517 5.05655172,7.65465517 5.01931034,7.7312069 C5.01465517,7.74051724 5.01,7.74931034 5.00586207,7.75862069 L3.06672414,7.75862069 C3.45827586,7.02051724 3.90931034,6.33 4.40948276,5.68965517 L6.22137931,5.68965517 C6.15827586,5.78017241 6.09465517,5.86965517 6.03362069,5.96172414 C5.88103448,6.19086207 5.73310345,6.42517241 5.59189655,6.66465517 L5.59189655,6.66465517 Z M7.10224138,3.10344828 L8.53137931,3.10344828 C8.40362069,3.21517241 8.27586207,3.32793103 8.1512069,3.44482759 C8.0462069,3.54413793 7.94431034,3.64706897 7.84189655,3.74948276 C7.74051724,3.85137931 7.64017241,3.95431034 7.54189655,4.05982759 C7.44568966,4.16275862 7.34896552,4.26465517 7.25534483,4.37017241 C7.17310345,4.46327586 7.09448276,4.55948276 7.01431034,4.65517241 L5.30637931,4.65517241 C5.86189655,4.07741379 6.46137931,3.55655172 7.10224138,3.10344828 L7.10224138,3.10344828 Z M4.82275862,24.8275862 L6.59793103,24.8275862 C6.65637931,24.9041379 6.71431034,24.9812069 6.77431034,25.0562069 C6.93051724,25.2522414 7.09086207,25.4436207 7.25586207,25.6298276 C7.34948276,25.7358621 7.44568966,25.8377586 7.54241379,25.9401724 C7.6412069,26.0451724 7.74103448,26.1486207 7.84241379,26.2505172 C7.88431034,26.292931 7.92465517,26.337931 7.96706897,26.3793103 L6.4112069,26.3793103 C5.84327586,25.9143103 5.31206897,25.395 4.82275862,24.8275862 L4.82275862,24.8275862 Z M11.2515517,28.7374138 C10.0655172,28.4875862 8.94465517,28.0293103 7.905,27.4137931 L9.1562069,27.4137931 C9.22086207,27.4634483 9.28706897,27.5105172 9.35224138,27.5591379 C9.46241379,27.6408621 9.57155172,27.7231034 9.6837931,27.8012069 C9.885,27.9413793 10.0898276,28.0758621 10.2977586,28.2036207 C10.3944828,28.2631034 10.4927586,28.317931 10.5905172,28.3743103 C10.7513793,28.4674138 10.9137931,28.5568966 11.0782759,28.6422414 C11.1372414,28.6727586 11.1931034,28.707931 11.2515517,28.7374138 L11.2515517,28.7374138 Z M16.5517241,28.9655172 C16.1410345,28.9655172 15.735,28.9412069 15.3341379,28.8951724 L15.1287931,28.8667241 C15.1034483,28.8631034 15.0781034,28.8589655 15.0527586,28.8558621 C14.8727586,28.8305172 14.6943103,28.8005172 14.5168966,28.7663793 C14.5039655,28.7637931 14.4915517,28.7612069 14.4786207,28.7586207 C14.3053448,28.7244828 14.1336207,28.6867241 13.9634483,28.6443103 C13.9406897,28.6386207 13.9184483,28.6324138 13.8962069,28.6262069 C13.7363793,28.5853448 13.5775862,28.5418966 13.4203448,28.4937931 C13.377931,28.4808621 13.3365517,28.4658621 13.2946552,28.4524138 C13.1575862,28.4089655 13.0210345,28.3644828 12.8865517,28.3153448 C12.7908621,28.2806897 12.6967241,28.2418966 12.6025862,28.2046552 C12.5218966,28.1731034 12.4406897,28.1431034 12.3610345,28.1094828 C9.58034483,26.9322414 7.27448276,24.6191379 5.87172414,21.6625862 C5.85931034,21.6356897 5.84741379,21.6087931 5.835,21.5818966 C5.75948276,21.4205172 5.68603448,21.257069 5.6162069,21.0915517 C5.5887931,21.0268966 5.56344828,20.9612069 5.53706897,20.8960345 C5.48431034,20.7667241 5.43258621,20.6368966 5.38293103,20.5055172 C5.35189655,20.4222414 5.32241379,20.337931 5.29241379,20.2536207 C5.25155172,20.1382759 5.2112069,20.0224138 5.17241379,19.905 C5.14137931,19.8103448 5.11189655,19.7151724 5.08293103,19.6194828 C5.04931034,19.5098276 5.01672414,19.3996552 4.98517241,19.2884483 C4.95672414,19.1875862 4.92982759,19.0862069 4.90344828,18.9848276 C4.875,18.8762069 4.84810345,18.7665517 4.82224138,18.6563793 C4.79741379,18.5524138 4.77362069,18.447931 4.75137931,18.3424138 C4.72758621,18.2322414 4.70586207,18.1210345 4.68465517,18.0098276 C4.66448276,17.9043103 4.64431034,17.7982759 4.6262069,17.6922414 C4.60655172,17.5774138 4.58948276,17.4615517 4.57241379,17.3451724 C4.55689655,17.2412069 4.54137931,17.1377586 4.52793103,17.0327586 C4.51189655,16.9086207 4.49948276,16.782931 4.48655172,16.6577586 C4.4762069,16.56 4.46482759,16.4627586 4.45655172,16.3644828 C4.44413793,16.2206897 4.43586207,16.0758621 4.42758621,15.9305172 C4.42293103,15.8487931 4.4162069,15.7681034 4.41258621,15.6863793 C4.40224138,15.4598276 4.39655172,15.2306897 4.39655172,15 C4.39655172,14.7693103 4.40224138,14.5401724 4.41155172,14.312069 C4.41517241,14.2303448 4.42189655,14.1491379 4.42655172,14.067931 C4.43482759,13.9231034 4.44310345,13.7777586 4.45551724,13.6339655 C4.4637931,13.5356897 4.47517241,13.4384483 4.48551724,13.3406897 C4.49844828,13.2155172 4.51137931,13.0898276 4.52689655,12.9656897 C4.54034483,12.8612069 4.55637931,12.7572414 4.57137931,12.6532759 C4.58844828,12.5374138 4.60603448,12.4215517 4.62517241,12.3062069 C4.64327586,12.1996552 4.66344828,12.0941379 4.68362069,11.9886207 C4.70482759,11.8774138 4.72706897,11.7662069 4.75034483,11.6560345 C4.77310345,11.5510345 4.79689655,11.4465517 4.8212069,11.342069 C4.84706897,11.2318966 4.87448276,11.1227586 4.90241379,11.0136207 C4.9287931,10.9117241 4.95568966,10.8108621 4.98413793,10.71 C5.01517241,10.5987931 5.04827586,10.4886207 5.08189655,10.3789655 C5.11241379,10.2848276 5.14137931,10.1891379 5.17241379,10.095 C5.21068966,9.97810345 5.25103448,9.86224138 5.29241379,9.74637931 C5.32241379,9.66206897 5.35137931,9.57775862 5.38293103,9.49448276 C5.43206897,9.36310345 5.48431034,9.23327586 5.53706897,9.10396552 C5.56344828,9.0387931 5.5887931,8.97310345 5.6162069,8.90844828 C5.68603448,8.74293103 5.75948276,8.58 5.835,8.41810345 C5.84741379,8.3912069 5.8587931,8.3637931 5.87172414,8.33741379 C7.27448276,5.38034483 9.58086207,3.06724138 12.3610345,1.89051724 C12.4406897,1.85689655 12.5218966,1.82741379 12.6025862,1.79534483 C12.6972414,1.75810345 12.7913793,1.71931034 12.8865517,1.68465517 C13.0215517,1.63603448 13.1581034,1.59103448 13.2946552,1.54758621 C13.3365517,1.53413793 13.3784483,1.51913793 13.4203448,1.5062069 C13.5775862,1.45810345 13.7363793,1.41465517 13.8962069,1.3737931 C13.9189655,1.36810345 13.9412069,1.36137931 13.9634483,1.35568966 C14.1336207,1.31327586 14.3053448,1.27551724 14.4786207,1.24137931 C14.4915517,1.2387931 14.5039655,1.2362069 14.5168966,1.23362069 C14.6943103,1.19948276 14.8727586,1.16948276 15.0527586,1.14413793 C15.0781034,1.14051724 15.1034483,1.13637931 15.1287931,1.13327586 L15.3341379,1.10482759 C15.735,1.0587931 16.1410345,1.03448276 16.5517241,1.03448276 C23.2541379,1.03448276 28.7068966,7.29931034 28.7068966,15 C28.7068966,22.7006897 23.2541379,28.9655172 16.5517241,28.9655172 L16.5517241,28.9655172 Z" id="Shape"></path>
                            <path d="M16.5517241,4.38413793 C16.8651724,4.38413793 17.1822414,4.40275862 17.492069,4.43844828 C17.5127586,4.44103448 17.532931,4.44206897 17.5525862,4.44206897 C17.8117241,4.44206897 18.0351724,4.24810345 18.0656897,3.98482759 C18.0987931,3.70137931 17.8955172,3.44431034 17.612069,3.4112069 C17.2639655,3.37034483 16.9096552,3.34965517 16.5424138,3.34965517 L16.5362069,3.34965517 L16.5294828,3.86689655 L16.5294828,3.34965517 C16.2434483,3.34965517 16.0231034,3.58086207 16.0231034,3.86689655 C16.0236207,4.15293103 16.2656897,4.38413793 16.5517241,4.38413793 L16.5517241,4.38413793 Z" id="Shape"></path>
                            <path d="M12.5839655,5.34672414 C12.6625862,5.34672414 12.7432759,5.32862069 12.8182759,5.29034483 C13.1068966,5.14344828 13.4043103,5.01206897 13.7022414,4.90086207 C13.9696552,4.80103448 14.1051724,4.50258621 14.0053448,4.23517241 C13.9055172,3.96724138 13.6086207,3.8312069 13.3396552,3.93206897 C13.0055172,4.05724138 12.6718966,4.20413793 12.3486207,4.36913793 C12.0941379,4.49844828 11.9927586,4.81034483 12.1225862,5.06482759 C12.2141379,5.2437931 12.3956897,5.34672414 12.5839655,5.34672414 L12.5839655,5.34672414 Z" id="Shape"></path>
                            <path d="M25.4146552,12.0475862 C25.4731034,12.2824138 25.6841379,12.4391379 25.9158621,12.4391379 C25.9577586,12.4391379 25.9996552,12.4339655 26.042069,12.4236207 C26.3193103,12.3537931 26.4874138,12.072931 26.4181034,11.7962069 C26.3317241,11.4522414 26.2298276,11.1072414 26.1144828,10.7710345 C26.0213793,10.5010345 25.7275862,10.3567241 25.457069,10.4498276 C25.187069,10.5424138 25.0427586,10.8367241 25.1353448,11.1072414 C25.2413793,11.4155172 25.335,11.732069 25.4146552,12.0475862 L25.4146552,12.0475862 Z" id="Shape"></path>
                            <path d="M24.6884483,7.90189655 C24.4882759,7.60655172 24.272069,7.31741379 24.0460345,7.04224138 C23.8639655,6.82189655 23.5391379,6.79034483 23.3177586,6.97137931 C23.0974138,7.15293103 23.0658621,7.4787931 23.2468966,7.69965517 C23.4527586,7.95 23.6498276,8.21327586 23.8318966,8.48224138 C23.9317241,8.63017241 24.0951724,8.70931034 24.2606897,8.70931034 C24.3605172,8.70931034 24.4613793,8.68034483 24.5503448,8.62034483 C24.7867241,8.45948276 24.8487931,8.13827586 24.6884483,7.90189655 L24.6884483,7.90189655 Z" id="Shape"></path>
                            <path d="M16.5517241,25.6158621 C16.2305172,25.6158621 15.9067241,25.5967241 15.5912069,25.5589655 C15.3010345,25.53 15.0496552,25.7281034 15.0160345,26.0115517 C14.9824138,26.295 15.1846552,26.5525862 15.4681034,26.5867241 C15.825,26.6291379 16.1901724,26.6508621 16.5522414,26.6508621 L16.5956897,26.6508621 C16.8817241,26.6508621 17.0912069,26.4191379 17.0912069,26.1336207 C17.0912069,25.8481034 16.8377586,25.6158621 16.5517241,25.6158621 L16.5517241,25.6158621 Z" id="Shape"></path>
                            <path d="M23.2867241,22.2517241 C23.0813793,22.5041379 22.8625862,22.7482759 22.6355172,22.977931 C22.4348276,23.1812069 22.4368966,23.5086207 22.6406897,23.7093103 C22.7410345,23.8086207 22.8724138,23.8587931 23.0037931,23.8587931 C23.1372414,23.8587931 23.2706897,23.8075862 23.372069,23.7051724 C23.6213793,23.4522414 23.8624138,23.1832759 24.0889655,22.9055172 C24.2694828,22.6836207 24.2358621,22.3577586 24.0139655,22.1777586 C23.792069,21.9977586 23.4672414,22.0308621 23.2867241,22.2517241 L23.2867241,22.2517241 Z" id="Shape"></path>
                            <path d="M20.3027586,24.7003448 C20.0156897,24.8477586 19.7187931,24.9796552 19.4203448,25.0918966 C19.152931,25.1922414 19.017931,25.4906897 19.1187931,25.7581034 C19.1963793,25.9655172 19.3934483,26.0932759 19.602931,26.0932759 C19.6634483,26.0932759 19.725,26.0824138 19.7855172,26.0596552 C20.1206897,25.9334483 20.4543103,25.7855172 20.7760345,25.6205172 C21.03,25.4901724 21.1303448,25.1782759 21,24.9243103 C20.8696552,24.6703448 20.5577586,24.5689655 20.3027586,24.7003448 L20.3027586,24.7003448 Z" id="Shape"></path>
                            <path d="M21.6501724,4.88793103 C21.3475862,4.69034483 21.0325862,4.5087931 20.712931,4.34793103 C20.4574138,4.21913793 20.1465517,4.32206897 20.0182759,4.57706897 C19.8894828,4.83206897 19.9918966,5.14344828 20.2468966,5.27172414 C20.5324138,5.41551724 20.8143103,5.57793103 21.0848276,5.75431034 C21.1717241,5.8112069 21.2694828,5.83862069 21.3667241,5.83862069 C21.5353448,5.83862069 21.7008621,5.75586207 21.8006897,5.6037931 C21.9574138,5.36482759 21.8896552,5.04413793 21.6501724,4.88793103 L21.6501724,4.88793103 Z" id="Shape"></path>
                            <path d="M26.292931,14.4662069 C26.0068966,14.4662069 25.7756897,14.7139655 25.7756897,15 C25.7756897,15.3196552 25.7637931,15.6393103 25.7394828,15.9512069 C25.7172414,16.2362069 25.9303448,16.485 26.2153448,16.5067241 C26.2287931,16.5077586 26.2427586,16.5082759 26.2556897,16.5082759 C26.5236207,16.5082759 26.7496552,16.3024138 26.7708621,16.0308621 C26.7972414,15.6925862 26.8101724,15.3455172 26.8101724,14.9994828 L26.8101724,14.9663793 C26.8101724,14.6813793 26.5789655,14.4662069 26.292931,14.4662069 L26.292931,14.4662069 Z" id="Shape"></path>
                            <path d="M7.32775862,15 C7.32775862,14.6777586 7.34068966,14.3503448 7.36603448,14.0275862 C7.38827586,13.7425862 7.17568966,13.4937931 6.89068966,13.4710345 C6.60931034,13.4524138 6.35689655,13.6613793 6.33465517,13.9458621 C6.30724138,14.2955172 6.29327586,14.6503448 6.29327586,14.9994828 L6.29327586,15.0103448 C6.29327586,15.2958621 6.52448276,15.5218966 6.81051724,15.5218966 C7.09655172,15.5218966 7.32775862,15.2855172 7.32775862,15 L7.32775862,15 Z" id="Shape"></path>
                            <path d="M25.8108621,18.5084483 C25.5408621,18.417931 25.247069,18.5627586 25.1555172,18.8332759 C25.0510345,19.1425862 24.932069,19.4503448 24.8022414,19.7487931 C24.687931,20.0105172 24.8084483,20.3156897 25.0701724,20.4294828 C25.1374138,20.4589655 25.2077586,20.4724138 25.2760345,20.4724138 C25.4762069,20.4724138 25.6660345,20.3560345 25.7508621,20.1615517 C25.892069,19.8362069 26.0213793,19.5005172 26.1351724,19.1632759 C26.2272414,18.8932759 26.0818966,18.6 25.8108621,18.5084483 L25.8108621,18.5084483 Z" id="Shape"></path>
                            <path d="M8.04310345,9.55086207 C7.77931034,9.43396552 7.4762069,9.555 7.36189655,9.81672414 C7.22017241,10.1405172 7.08982759,10.4762069 6.975,10.8144828 C6.88344828,11.085 7.0287931,11.3787931 7.2987931,11.4708621 C7.35362069,11.4894828 7.41,11.4982759 7.46482759,11.4982759 C7.68051724,11.4982759 7.88172414,11.3622414 7.95465517,11.147069 C8.05965517,10.8367241 8.17913793,10.5289655 8.30948276,10.2325862 C8.4237931,9.97086207 8.30482759,9.66568966 8.04310345,9.55086207 L8.04310345,9.55086207 Z" id="Shape"></path>
                            <path d="M9.25965517,21.5001724 C9.09931034,21.2632759 8.77862069,21.2012069 8.5412069,21.3610345 C8.30482759,21.5213793 8.24275862,21.8425862 8.40258621,22.0794828 C8.60534483,22.3789655 8.82051724,22.6686207 9.04293103,22.9401724 C9.14534483,23.0648276 9.29327586,23.1294828 9.44327586,23.1294828 C9.55862069,23.1294828 9.67448276,23.0912069 9.77068966,23.012069 C9.99206897,22.8305172 10.0236207,22.5051724 9.84310345,22.2837931 C9.64137931,22.037069 9.44482759,21.7732759 9.25965517,21.5001724 L9.25965517,21.5001724 Z" id="Shape"></path>
                            <path d="M7.68362069,17.9317241 C7.61431034,17.6544828 7.33241379,17.4853448 7.05672414,17.5546552 C6.77948276,17.6234483 6.61086207,17.9043103 6.67965517,18.1815517 C6.76551724,18.5260345 6.86741379,18.8710345 6.98224138,19.2072414 C7.05568966,19.4224138 7.25637931,19.5574138 7.47155172,19.5574138 C7.52689655,19.5574138 7.58327586,19.5481034 7.63862069,19.5294828 C7.90862069,19.4368966 8.05344828,19.1431034 7.96086207,18.8725862 C7.85534483,18.5648276 7.76275862,18.2482759 7.68362069,17.9317241 L7.68362069,17.9317241 Z" id="Shape"></path>
                            <path d="M9.74793103,6.27931034 C9.49862069,6.53068966 9.25655172,6.79965517 9.02896552,7.07793103 C8.84793103,7.29931034 8.88103448,7.62517241 9.10241379,7.80568966 C9.19862069,7.88431034 9.31448276,7.92258621 9.42931034,7.92258621 C9.57931034,7.92258621 9.72827586,7.85793103 9.83017241,7.73275862 C10.0365517,7.47982759 10.2558621,7.2362069 10.4824138,7.00810345 C10.6836207,6.80534483 10.6825862,6.47793103 10.4793103,6.27672414 C10.2765517,6.07551724 9.94913793,6.07603448 9.74793103,6.27931034 L9.74793103,6.27931034 Z" id="Shape"></path>
                            <path d="M12.8368966,24.7194828 C12.5513793,24.5746552 12.2694828,24.4112069 12,24.2343103 C11.7610345,24.0775862 11.4408621,24.1453448 11.2836207,24.3837931 C11.1274138,24.6227586 11.1941379,24.9434483 11.4331034,25.0996552 C11.7346552,25.2972414 12.0491379,25.4793103 12.3693103,25.6417241 C12.4443103,25.68 12.5239655,25.6975862 12.6025862,25.6975862 C12.7913793,25.6975862 12.9734483,25.5941379 13.0644828,25.4146552 C13.1937931,25.1601724 13.0924138,24.8487931 12.8368966,24.7194828 L12.8368966,24.7194828 Z" id="Shape"></path>
                            <path d="M19.6013793,14.8991379 C19.0789655,14.6405172 18.4913793,14.4253448 17.8556897,14.2598276 C17.4884483,14.1636207 17.2251724,14.0948276 17.0663793,14.0524138 L17.0663793,9.43034483 C17.3012069,9.47689655 17.5246552,9.54568966 17.7341379,9.63517241 C18.5896552,9.98534483 19.0918966,10.4860345 19.6681034,11.1232759 L19.6681034,12.2001724 C19.6681034,12.5105172 19.8682759,12.7106897 20.1786207,12.7106897 C20.4889655,12.7106897 20.6896552,12.5105172 20.6896552,12.2001724 L20.6896552,9.00931034 C20.6896552,8.69896552 20.4889655,8.4987931 20.1791379,8.4987931 C19.8693103,8.4987931 19.6686207,8.69948276 19.6686207,9.00931034 L19.6686207,9.68948276 C19.5501724,9.59689655 19.6298276,9.49034483 19.4606897,9.36982759 C18.8094828,8.90327586 18.0051724,8.57896552 17.0663793,8.40465517 L17.0663793,7.66551724 C17.0663793,7.35517241 16.8662069,7.155 16.5558621,7.155 C16.2455172,7.155 16.0453448,7.35568966 16.0453448,7.66551724 L16.0453448,8.33224138 C14.7206897,8.35448276 13.727069,8.65862069 13.0903448,9.23741379 C12.4215517,9.8462069 12.0822414,10.6675862 12.0822414,11.6793103 C12.0822414,12.2156897 12.237931,12.6972414 12.5446552,13.11 C12.8425862,13.5113793 13.2693103,13.8512069 13.8134483,14.1196552 C14.3053448,14.3632759 15.0553448,14.6255172 16.0458621,14.9001724 L16.0458621,19.847069 C15.7768966,19.8010345 15.5286207,19.7353448 15.3051724,19.6505172 C14.3891379,19.3008621 13.9810345,19.0841379 13.4353448,18.4913793 L13.4353448,17.3312069 C13.4353448,17.0208621 13.2346552,16.8206897 12.9248276,16.8206897 C12.615,16.8206897 12.4137931,17.0208621 12.4137931,17.3312069 L12.4137931,20.522069 C12.4137931,20.8324138 12.6139655,21.0325862 12.9243103,21.0325862 C13.2346552,21.0325862 13.4348276,20.8318966 13.4348276,20.522069 L13.4348276,19.8413793 C14.3281034,20.5577586 14.9844828,20.7325862 16.0453448,20.8784483 L16.0453448,21.6051724 C16.0453448,21.9155172 16.2460345,22.1156897 16.5558621,22.1156897 C16.8656897,22.1156897 17.0663793,21.915 17.0663793,21.6051724 L17.0663793,20.9394828 C18.4039655,20.9234483 19.4513793,20.6037931 20.1817241,19.9893103 C20.9451724,19.347931 21.332069,18.4727586 21.332069,17.3901724 C21.332069,16.8206897 21.1763793,16.3231034 20.8696552,15.9093103 C20.5717241,15.5074138 20.145,15.1681034 19.6013793,14.8991379 L19.6013793,14.8991379 Z M16.0453448,13.7674138 C15.8674138,13.7146552 15.6718966,13.6577586 15.4598276,13.5972414 C15.1205172,13.5 14.7537931,13.3634483 14.37,13.1901724 C14.01,13.0282759 13.7017241,12.797069 13.4539655,12.5032759 C13.2181034,12.2244828 13.1037931,11.9058621 13.1037931,11.5282759 C13.1037931,10.9184483 13.3432759,10.4172414 13.8362069,9.99465517 C14.31,9.58913793 15.0527586,9.37396552 16.0458621,9.35327586 L16.0458621,13.7674138 L16.0453448,13.7674138 Z M19.8491379,19.5931034 C19.8403448,19.6003448 19.8294828,19.6055172 19.8206897,19.6122414 C19.8956897,19.5512069 19.9681034,19.4881034 20.0348276,19.4224138 C19.9768966,19.4813793 19.9148276,19.5377586 19.8491379,19.5931034 L19.8491379,19.5931034 Z M19.4762069,19.2284483 C18.9237931,19.6712069 18.1132759,19.9034483 17.0668966,19.9184483 L17.0668966,15.177931 L17.8810345,15.405 C18.2689655,15.5131034 18.6605172,15.6553448 19.0448276,15.8281034 C19.4048276,15.99 19.7131034,16.2217241 19.9608621,16.5144828 C20.1967241,16.7943103 20.3115517,17.112931 20.3115517,17.49 C20.3115517,18.2089655 20.037931,18.777931 19.4762069,19.2284483 L19.4762069,19.2284483 Z" id="Shape"></path>
                        </g>
                    </g>
                </g>
            </g>
        </g>
    </g>
</svg>