<?xml version="1.0" encoding="UTF-8"?>
<svg width="58px" height="51px" viewBox="0 0 58 51" version="1.1" xmlns="http://www.w3.org/2000/svg" xmlns:xlink="http://www.w3.org/1999/xlink">
    <!-- Generator: sketchtool 46.2 (44496) - http://www.bohemiancoding.com/sketch -->
    <title>3F895BD7-AABC-4B9B-B787-27FB03DD720A</title>
    <desc>Created with sketchtool.</desc>
    <defs></defs>
    <g id="Symbols" stroke="none" stroke-width="1" fill="none" fill-rule="evenodd">
        <g id="icon/company" fill="#3C3B3B">
            <g id="geometric">
                <g id="Capa_1">
                    <path d="M57.6896118,43.3245332 C57.6884951,43.3154754 57.6868821,43.3066658 57.6855172,43.2977322 C57.6812985,43.2688219 57.675715,43.2404079 57.6688907,43.2123661 C57.6666572,43.2034324 57.6645479,43.1946229 57.6620663,43.1856892 C57.6530086,43.1528084 57.6423378,43.1205479 57.6298059,43.0892801 C57.6286892,43.0864263 57.6278206,43.0834484 57.6267039,43.0807187 C57.6120627,43.0451081 57.5950639,43.0106143 57.576328,42.9773612 C57.5753354,42.9756241 57.574715,42.9736388 57.5737224,42.9719017 L33.2726757,0.519641278 C33.268457,0.512320639 33.2636179,0.50586855 33.2592752,0.49867199 C33.2492248,0.482045455 33.2390504,0.465542998 33.2278833,0.449660934 C33.2196941,0.437997543 33.2110086,0.426830467 33.2024472,0.415539312 C33.1930172,0.403255528 33.1835872,0.390971744 33.1736609,0.379308354 C33.1628661,0.366528256 33.1515749,0.354492629 33.1401597,0.342457002 C33.131102,0.332902948 33.1221683,0.323472973 33.1128624,0.314415233 C33.1003305,0.302255528 33.0873022,0.290716216 33.074274,0.279300983 C33.0645958,0.270987715 33.0550418,0.262674447 33.0451155,0.254733415 C33.0320872,0.244310811 33.0186867,0.2345086 33.0051622,0.224830467 C32.9937469,0.216641278 32.9822076,0.208700246 32.9704201,0.201007371 C32.9580123,0.19294226 32.9453563,0.185497543 32.9325762,0.178052826 C32.9186794,0.169987715 32.9046585,0.162046683 32.8902654,0.154726044 C32.8789742,0.148894349 32.8674349,0.143558968 32.8560197,0.138223587 C32.8397654,0.130654791 32.8235111,0.123458231 32.8067604,0.116882064 C32.7960897,0.112663391 32.7851708,0.108816953 32.7743759,0.105094595 C32.7568808,0.0988906634 32.7392617,0.0930589681 32.7212703,0.0879717445 C32.7099791,0.0847457002 32.6985639,0.0820159705 32.6871486,0.0791621622 C32.6697776,0.0749434889 32.6524066,0.0708488943 32.6346634,0.0674987715 C32.6210147,0.0648931204 32.607242,0.0631560197 32.5934693,0.0611707617 C32.5779595,0.0590614251 32.5624496,0.0568280098 32.5465676,0.055463145 C32.5291966,0.0539742015 32.5118256,0.0533538084 32.4944545,0.0528574939 C32.4846523,0.0526093366 32.4750983,0.0513685504 32.465172,0.0513685504 L25.4403366,0.0513685504 C25.4359939,0.0513685504 25.4317752,0.0521130221 25.4274324,0.0522371007 C25.3954201,0.0527334152 25.363656,0.0548427518 25.3318919,0.0585651106 C25.3237027,0.0595577396 25.3156376,0.0603022113 25.3075725,0.0614189189 C25.2339939,0.0720896806 25.1621523,0.0914459459 25.0931646,0.119239558 C25.0852236,0.122465602 25.0774066,0.125939803 25.0695897,0.129414005 C25.0414238,0.14157371 25.0140025,0.155222359 24.9872015,0.170111794 C24.9813698,0.173337838 24.975414,0.176315725 24.9697064,0.179665848 C24.9056818,0.217137592 24.8458759,0.262674447 24.7916536,0.31565602 C24.7855737,0.321611794 24.779742,0.327815725 24.7737862,0.333895577 C24.7534373,0.354864865 24.7342052,0.376826781 24.7157174,0.399905405 C24.7096376,0.407474201 24.7033096,0.414918919 24.6974779,0.422735872 C24.675516,0.452018428 24.6546708,0.48241769 24.6358108,0.514802211 C24.6354386,0.515422604 24.6349423,0.516042998 24.63457,0.516663391 C24.6344459,0.516911548 24.6344459,0.517035627 24.6343219,0.517283784 L0.124699017,42.9684275 C-0.0415663391,43.2562899 -0.0415663391,43.6110307 0.124699017,43.8990172 L3.63686855,49.9830885 C3.63798526,49.9850737 3.6394742,49.9868108 3.64071499,49.9887961 C3.66031941,50.0221732 3.68166093,50.0546818 3.70548403,50.0857015 C3.70560811,50.0858256 3.70560811,50.0858256 3.70573219,50.0859496 C3.7283145,50.1152322 3.75313022,50.1429017 3.77943489,50.1695786 C3.78489435,50.1751622 3.79047789,50.1804975 3.79606143,50.1858329 C3.81814742,50.2071744 3.8414742,50.2275233 3.86591769,50.2468796 C3.87174939,50.2515946 3.877457,50.2564337 3.88341278,50.2609005 C3.91331572,50.2833587 3.9442113,50.3047002 3.97746437,50.3239324 C4.01034521,50.3429165 4.04397052,50.3587985 4.07796806,50.3733157 C4.08057371,50.3744324 4.08305528,50.3759214 4.08566093,50.3770381 C4.20117813,50.4251806 4.32215479,50.4486314 4.44201474,50.4486314 C4.44387592,50.4486314 4.4457371,50.4482592 4.44759828,50.4482592 L53.2535528,50.4482592 C53.5860835,50.4482592 53.8931781,50.2708268 54.0594435,49.9829644 L57.5719853,43.8992654 C57.573226,43.8970319 57.5740946,43.8945504 57.5754595,43.892317 C57.5941953,43.859188 57.6113182,43.8251904 57.6259595,43.7897039 C57.6265799,43.7880909 57.6270762,43.7863538 57.6278206,43.7847408 C57.640973,43.7524803 57.6518919,43.7192273 57.6614459,43.6852297 C57.6640516,43.676172 57.6661609,43.6671143 57.6685184,43.6579324 C57.6753428,43.6305111 57.6808022,43.6027174 57.6850209,43.5744275 C57.6865098,43.5647494 57.6882469,43.5551953 57.6894877,43.5455172 C57.6935823,43.5108993 57.696188,43.4759091 57.6964361,43.4402985 C57.6964361,43.4385614 57.6966843,43.4368243 57.6966843,43.4350872 L57.6966843,43.4339705 C57.6965602,43.396871 57.6938305,43.360516 57.6896118,43.3245332 L57.6896118,43.3245332 Z M4.44288329,47.6566143 L2.00511057,43.4337224 L25.4400885,2.84301351 L44.8253882,36.4195577 L39.9495946,36.4195577 L26.2459791,12.6844337 C26.244242,12.6814558 26.2422568,12.6788501 26.2405197,12.6759963 C26.2304693,12.6589975 26.2195504,12.6426192 26.2083833,12.6262408 C26.2019312,12.6168108 26.1958514,12.6070086 26.189027,12.5979509 C26.1784803,12.5835577 26.166941,12.5699091 26.1555258,12.5560123 C26.1469644,12.5457138 26.1387752,12.5351671 26.1298415,12.5253649 C26.1200393,12.5144459 26.1092445,12.5042715 26.0988219,12.4937248 C26.0871585,12.4820614 26.0757432,12.4701499 26.0635835,12.459231 C26.054774,12.4512899 26.0454681,12.4439693 26.0362862,12.4364005 C26.0213968,12.4239926 26.0066314,12.4115848 25.9911216,12.4001695 C25.9826843,12.3939656 25.9737506,12.3883821 25.9650651,12.3824263 C25.9481904,12.370887 25.9311916,12.3594717 25.9135725,12.3491732 C25.9107187,12.3474361 25.9082371,12.3454509 25.9052592,12.3438378 C25.8978145,12.3394951 25.8901216,12.336269 25.8825528,12.3321744 C25.8661744,12.3233649 25.8499201,12.3146794 25.8330455,12.3068624 C25.819769,12.3006585 25.8064926,12.295199 25.7930921,12.2897396 C25.7790713,12.2840319 25.7651744,12.2783243 25.7509054,12.2732371 C25.7350233,12.2675295 25.7188931,12.2626904 25.702887,12.2578514 C25.6906032,12.2542531 25.6784435,12.2506548 25.6661597,12.2475528 C25.6486646,12.2432101 25.6311695,12.2394877 25.6136744,12.2361376 C25.601887,12.2339042 25.5899754,12.2316708 25.5780639,12.2299337 C25.5606929,12.227328 25.5433219,12.2253428 25.5258268,12.2237297 C25.5129226,12.2224889 25.5000184,12.2214963 25.4869902,12.2208759 C25.47086,12.2200074 25.4547297,12.2197592 25.4387236,12.2197592 C25.4240823,12.2197592 25.409441,12.2200074 25.3947998,12.2207518 C25.3802826,12.2214963 25.3660135,12.222613 25.3516204,12.2239779 C25.3356143,12.2254668 25.3196081,12.227328 25.303726,12.2296855 C25.2903256,12.2316708 25.2771732,12.2340283 25.2638968,12.2366339 C25.2476425,12.2397359 25.2313882,12.2432101 25.215258,12.2471806 C25.2017334,12.2505307 25.1883329,12.2545012 25.1749324,12.2584717 C25.1599189,12.2629386 25.1450295,12.2675295 25.1302641,12.2727408 C25.1148784,12.2782002 25.0998649,12.2842801 25.0848514,12.290484 C25.0724435,12.2955713 25.0601597,12.3006585 25.0478759,12.3063661 C25.0301327,12.3145553 25.0127617,12.3237371 24.9955147,12.3331671 C24.9886904,12.3368894 24.9816179,12.3398673 24.9749177,12.3437138 C24.972312,12.3452027 24.9699545,12.3470639 24.9673489,12.3485528 C24.9489853,12.3593477 24.9311179,12.3712592 24.9133747,12.3834189 C24.9054337,12.3888784 24.8972445,12.3940897 24.8894275,12.3997973 C24.8732973,12.4115848 24.8579115,12.4243649 24.8426499,12.437269 C24.8340885,12.4444656 24.8251548,12.451414 24.8168415,12.4588587 C24.8044337,12.4701499 24.7926462,12.4823096 24.7807346,12.4943452 C24.7705602,12.5045197 24.7601376,12.51457 24.7505835,12.5251167 C24.7415258,12.5351671 24.7330885,12.5458378 24.724527,12.5563845 C24.7132359,12.5700332 24.7018206,12.5835577 24.691398,12.5978268 C24.6846978,12.6070086 24.6784939,12.6168108 24.6720418,12.6262408 C24.6609988,12.6426192 24.6499558,12.6588735 24.6399054,12.6758722 C24.6381683,12.678726 24.636183,12.6813317 24.6344459,12.6843096 L4.44288329,47.6566143 L4.44288329,47.6566143 Z M37.8004287,36.4196818 L20.1045835,36.4196818 L28.9525061,21.094731 L37.8004287,36.4196818 L37.8004287,36.4196818 Z M52.7161683,48.5872039 L6.05466462,48.5872039 L25.4400885,15.0107838 L27.8779853,19.2334275 L14.1746179,42.9684275 C14.0929742,43.1100012 14.0499189,43.2708071 14.0499189,43.4340946 C14.0499189,43.9481523 14.4664509,44.3646843 14.9805086,44.3646843 L21.1392752,44.3646843 C21.6533329,44.3646843 22.0698649,43.9481523 22.0698649,43.4340946 C22.0698649,42.9200369 21.6533329,42.5035049 21.1392752,42.5035049 L16.5921658,42.5035049 L19.0301867,38.2808612 L39.4113415,38.2808612 C39.4119619,38.2808612 39.4125823,38.2809853 39.4132027,38.2809853 C39.4138231,38.2809853 39.4144435,38.2808612 39.4150639,38.2808612 L45.9000332,38.2808612 L48.33793,42.5035049 L24.8616339,42.5035049 C24.3475762,42.5035049 23.9310442,42.9200369 23.9310442,43.4340946 C23.9310442,43.9481523 24.3475762,44.3646843 24.8616339,44.3646843 L49.9487187,44.3646843 C49.9493391,44.3646843 49.9499595,44.3648084 49.9505799,44.3648084 C49.9512002,44.3648084 49.9518206,44.3646843 49.952441,44.3646843 L55.1540651,44.3646843 L52.7161683,48.5872039 L52.7161683,48.5872039 Z M50.4870958,42.5035049 L27.0518698,1.91242383 L31.92543,1.91242383 L55.1608894,42.5035049 L50.4870958,42.5035049 L50.4870958,42.5035049 Z" id="Shape"></path>
                </g>
            </g>
        </g>
    </g>
</svg>