<?xml version="1.0" encoding="UTF-8"?>
<svg width="48px" height="55px" viewBox="0 0 48 55" version="1.1" xmlns="http://www.w3.org/2000/svg" xmlns:xlink="http://www.w3.org/1999/xlink">
    <!-- Generator: sketchtool 46.2 (44496) - http://www.bohemiancoding.com/sketch -->
    <title>7A4F2E7B-5FC4-43F4-A432-534C68469DDC</title>
    <desc>Created with sketchtool.</desc>
    <defs></defs>
    <g id="Symbols" stroke="none" stroke-width="1" fill="none" fill-rule="evenodd">
        <g id="header/white-sign-up" transform="translate(-270.000000, -18.000000)" fill-rule="nonzero" fill="#000000">
            <g id="Asset21" transform="translate(270.000000, 18.000000)">
                <path d="M47.9154762,16.1595238 C47.9199802,14.7455445 47.1716747,13.4360098 45.9511905,12.7220238 L25.9482143,1.18511905 C24.7172315,0.471278175 23.1982447,0.471278175 21.9672619,1.18511905 L19.2827381,2.75 L18.9357143,2.94642857 L18.9357143,7.88333333 L16.3690476,6.38392857 C15.328863,5.77866282 14.0437561,5.77866282 13.0035714,6.38392857 L9.7297619,8.26964286 L9.52678571,8.3875 L9.52678571,13.3244048 L5.27738095,10.8232143 L2.00357143,12.7220238 C0.783087225,13.4360098 0.0347816582,14.7455445 0.0392857143,16.1595238 L0.0392857143,38.8208333 C0.0404476735,40.4935777 0.934018921,42.0386073 2.38333333,42.8738095 L21.914881,54.175 C23.1797249,54.9021522 24.7357513,54.9021522 26.0005952,54.175 L45.9315476,42.6708333 C47.1520318,41.9568473 47.9003374,40.6473126 47.8958333,39.2333333 L47.8958333,35.5666667 L43.672619,33.1178571 L46.1345238,31.6970238 C47.2353054,31.0630472 47.9142123,29.889936 47.9154762,28.6196429 L47.9154762,24.6910714 L43.672619,22.2619048 L47.9154762,19.8130952 L47.9154762,16.1595238 Z M10.7511905,8.60357143 L13.3375,7.1172619 C14.1693902,6.63383072 15.1966813,6.63383072 16.0285714,7.1172619 L18.9422619,8.82619048 L19.7541667,9.29761905 L19.7541667,9.29761905 L27.8535714,14.025 C31.2544307,15.9994639 35.4527121,15.9994639 38.8535714,14.025 L38.8535714,14.025 L20.1535714,3.18869048 L22.3797619,1.87916667 C23.3595394,1.31035575 24.569032,1.31035575 25.5488095,1.87916667 L45.5255952,13.422619 C45.8871542,13.6304815 46.2033179,13.9087946 46.4553571,14.2410714 L25.6404762,26.2559524 C24.5971684,26.8583064 23.3117602,26.8583064 22.2684524,26.2559524 L1.46011905,14.2410714 C1.71228873,13.9089159 2.0284258,13.6306263 2.38988095,13.422619 L5.27083333,11.7857143 L9.52678571,14.2803571 L10.3386905,14.7517857 L10.3386905,14.7517857 L18.4642857,19.4660714 C21.8634862,21.4380021 26.0585376,21.4380021 29.4577381,19.4660714 L29.4577381,19.4660714 L10.7511905,8.60357143 Z M23.5714286,32.1619048 C23.1262622,32.108813 22.696423,31.9662756 22.3077381,31.7428571 L10.1357143,24.7238095 C9.00925724,24.0765629 7.62324564,24.0786668 6.49875876,24.7293302 C5.37427187,25.3799937 4.68174878,26.5805954 4.68154762,27.8797619 L4.68154762,27.8797619 L21.8952381,37.8321429 C22.4090025,38.1292392 22.9806618,38.3123488 23.5714286,38.3690476 L23.5714286,43.0309524 C23.1281969,42.9784262 22.7003868,42.8358229 22.3142857,42.6119048 L10.1357143,35.5732143 C9.00750083,34.9202793 7.6165799,34.9191432 6.48730138,35.5702344 C5.35802286,36.2213256 4.66210866,37.425637 4.66190476,38.7291667 L4.66190476,38.7291667 L21.914881,48.6880952 C22.4213157,48.9781791 22.9838608,49.1567649 23.564881,49.2119048 L23.564881,53.8869048 C23.1266327,53.834667 22.7034714,53.6943557 22.3208333,53.4744048 L2.74345238,42.1732143 C1.53446957,41.489289 0.784797023,40.2098479 0.779166667,38.8208333 L0.779166667,16.1595238 C0.778469069,15.7436517 0.860833808,15.331828 1.02142857,14.9482143 L21.8690476,26.9630952 C22.3914443,27.2620626 22.9720342,27.4451717 23.5714286,27.5 L23.5714286,32.1619048 Z M13.3375,38.3559524 L21.9083333,43.3125 C23.1785353,44.0458514 24.7434886,44.0458514 26.0136905,43.3125 L42.8607143,33.5827381 L46.697619,35.7958333 L25.5946429,47.9809524 C24.5817227,48.5657621 23.3337535,48.5657621 22.3208333,47.9809524 L5.61130952,38.3363095 L5.61130952,38.3363095 C8.00708715,36.9689529 10.948706,36.9764316 13.3375,38.3559524 L13.3375,38.3559524 Z M22.3011905,37.1315476 L5.61130952,27.5 L5.61130952,27.5 C7.99405914,26.1258766 10.9285599,26.1258766 13.3113095,27.5 L21.8952381,32.4565476 C23.1715175,33.1934079 24.7439587,33.1934079 26.0202381,32.4565476 L42.8607143,22.7267857 L46.697619,24.9529762 L25.6142857,37.1315476 C24.5892105,37.7233751 23.3262657,37.7233751 22.3011905,37.1315476 Z" id="Shape"></path>
            </g>
        </g>
    </g>
</svg>