<?xml version="1.0" encoding="utf-8"?>
<!-- Generator: Adobe Illustrator 20.1.0, SVG Export Plug-In . SVG Version: 6.00 Build 0)  -->
<svg version="1.1" id="Layer_1" xmlns="http://www.w3.org/2000/svg" xmlns:xlink="http://www.w3.org/1999/xlink" x="0px" y="0px"
	 viewBox="0 0 66 60" style="enable-background:new 0 0 66 60;" xml:space="preserve">
<style type="text/css">
	.st0{fill:#FFFFFF;}
	.st1{fill:#3C3B3B;}
</style>
<title>Asset 22</title>
<desc>Created with Sketch.</desc>
<g id="web">
	<g id="Services-" transform="translate(-515.000000, -830.000000)">
		<g id="Asset-22" transform="translate(515.000000, 830.000000)">
			<ellipse id="Oval" class="st0" cx="30.1" cy="29.6" rx="29.3" ry="28.7"/>
			<path id="Shape" class="st1" d="M30.1,59.1C13.5,59.1,0,45.9,0,29.6S13.5,0,30.1,0s30.1,13.2,30.1,29.6
				C60.2,45.9,46.8,59.1,30.1,59.1z M30.1,1.7C14.5,1.7,1.7,14.2,1.7,29.6s12.7,27.8,28.4,27.8s28.4-12.5,28.4-27.8
				C58.5,14.2,45.8,1.7,30.1,1.7z"/>
			<ellipse id="Oval_1_" class="st0" cx="53.3" cy="46.6" rx="11.3" ry="11.1"/>
			<path id="Shape_1_" class="st1" d="M53.3,58.5c-6.8,0-12.2-5.4-12.2-12s5.5-12,12.2-12s12.2,5.4,12.2,12c0,3.2-1.3,6.2-3.6,8.5
				C59.7,57.3,56.6,58.5,53.3,58.5L53.3,58.5z M53.3,36.2c-5.8,0-10.5,4.6-10.5,10.3s4.7,10.3,10.5,10.3s10.5-4.6,10.5-10.3
				C63.8,40.9,59.1,36.3,53.3,36.2L53.3,36.2z"/>
			<path id="Shape_2_" class="st0" d="M36.8,16.5h-3.5c-1.8-0.1-3.5,0.6-4.7,1.8c-1.2,1.2-1.8,2.9-1.7,4.7v3h-3.5
				c-0.1,0-0.3,0.1-0.4,0.2c-0.1,0.1-0.2,0.2-0.2,0.4v4.3c0,0.3,0.2,0.5,0.5,0.5h3.5v10.9c0,0.3,0.2,0.5,0.5,0.5H32
				c0.3,0,0.5-0.2,0.5-0.5V31.3h4.2c0.3,0,0.5-0.2,0.5-0.5v-4.3c0-0.1-0.1-0.3-0.2-0.4c-0.1-0.1-0.2-0.2-0.4-0.2h-4.1v-2.5
				c0-1.2,0.3-1.8,1.9-1.8h2.3c0.3,0,0.5-0.2,0.5-0.5v-4C37.3,16.7,37.1,16.5,36.8,16.5L36.8,16.5z"/>
			<path id="Shape_3_" class="st1" d="M32,43.3h-4.5c-0.7,0-1.2-0.5-1.2-1.2V31.9h-2.8c-0.3,0-0.6-0.1-0.9-0.4s-0.4-0.5-0.4-0.9
				v-4.3c0-0.7,0.6-1.2,1.2-1.2h2.8v-2.3c-0.1-1.9,0.6-3.8,1.9-5.1c1.4-1.4,3.2-2.1,5.2-2h3.5c0.3,0,0.6,0.1,0.9,0.4
				c0.2,0.2,0.4,0.5,0.4,0.9v4c0,0.7-0.6,1.2-1.2,1.2h-2.3c-1.2,0-1.2,0.2-1.2,1.1v1.9h3.4c0.3,0,0.6,0.1,0.9,0.4
				c0.2,0.2,0.4,0.5,0.4,0.9v4.3c0,0.3-0.1,0.6-0.4,0.9c-0.2,0.2-0.5,0.4-0.9,0.4h-3.5v10.2C33.2,42.8,32.7,43.3,32,43.3L32,43.3z
				 M27.6,41.9h4.2V31.3c0-0.4,0.3-0.7,0.7-0.7h3.9v-4h-3.9c-0.4,0-0.7-0.3-0.7-0.7v-2.5c0-1.2,0.3-2.5,2.6-2.5h2.2v-3.7h-3.4
				c-1.6-0.1-3.1,0.5-4.2,1.6c-1.1,1.1-1.6,2.6-1.5,4.2v3c0,0.4-0.3,0.7-0.7,0.7h-3.3v4h3.3c0.4,0,0.7,0.3,0.7,0.7L27.6,41.9z"/>
			<path id="Shape_4_" class="st1" d="M51.3,50.7L51.3,50.7c-0.2,0-0.5-0.1-0.6-0.3l-3.2-3.7c-0.2-0.2-0.3-0.6-0.1-0.8
				c0.1-0.3,0.4-0.5,0.7-0.5c0.3-0.1,0.6,0.1,0.8,0.3l2.6,3l6.6-6c0.2-0.2,0.6-0.3,0.9-0.2c0.3,0.1,0.6,0.3,0.6,0.7
				s-0.1,0.6-0.3,0.8l-7.3,6.7C51.7,50.7,51.5,50.7,51.3,50.7z"/>
		</g>
	</g>
</g>
</svg>
