<?xml version="1.0" encoding="utf-8"?>
<!-- Generator: Adobe Illustrator 21.1.0, SVG Export Plug-In . SVG Version: 6.00 Build 0)  -->
<svg version="1.1" id="Layer_1" xmlns="http://www.w3.org/2000/svg" xmlns:xlink="http://www.w3.org/1999/xlink" x="0px" y="0px"
	 viewBox="0 0 18.6 17.9" style="enable-background:new 0 0 18.6 17.9;" xml:space="preserve">
<path d="M18.2,8.1c0.4-0.4,0.5-0.9,0.3-1.4c-0.1-0.5-0.6-0.8-1.1-0.9L13,5.2c-0.2,0-0.4-0.1-0.4-0.3l-2-4.1C10.3,0.3,9.8,0,9.3,0
	s-1,0.3-1.2,0.7l-2,4.1C6,5,5.8,5.1,5.7,5.2L1.1,5.9C0.6,5.9,0.2,6.3,0.1,6.8c-0.1,0.5,0,1,0.3,1.4l3.2,3.2c0.1,0.1,0.2,0.3,0.2,0.5
	L3,16.3c-0.1,0.5,0.1,1,0.5,1.3c0.4,0.3,1,0.3,1.4,0.1l4-2.1c0.2-0.1,0.4-0.1,0.6,0l4,2.1c0.2,0.1,0.4,0.1,0.6,0.1
	c0.3,0,0.6-0.1,0.8-0.3c0.4-0.3,0.6-0.8,0.5-1.3l-0.8-4.5c0-0.2,0-0.4,0.2-0.5L18.2,8.1z M14.1,12l0.8,4.5c0,0.2,0,0.4-0.2,0.6
	c-0.2,0.1-0.4,0.1-0.6,0l-4-2.1c-0.2-0.1-0.4-0.1-0.6-0.1c-0.2,0-0.4,0-0.6,0.1l-4,2.1c-0.2,0.1-0.4,0.1-0.6,0
	c-0.2-0.1-0.3-0.3-0.2-0.6L4.6,12c0.1-0.4-0.1-0.9-0.4-1.2L0.9,7.6C0.8,7.5,0.7,7.2,0.8,7C0.8,6.8,1,6.6,1.3,6.6l4.5-0.7
	c0.4-0.1,0.8-0.3,1-0.7l2-4.1c0.1-0.2,0.3-0.3,0.5-0.3c0.2,0,0.4,0.1,0.5,0.3l2,4.1c0.2,0.4,0.6,0.7,1,0.7l4.5,0.7
	c0.2,0,0.4,0.2,0.5,0.4s0,0.4-0.1,0.6l-3.2,3.2C14.1,11.1,14,11.5,14.1,12z"/>
</svg>
