<?xml version="1.0" encoding="UTF-8"?>
<svg width="36px" height="36px" viewBox="0 0 36 36" version="1.1" xmlns="http://www.w3.org/2000/svg" xmlns:xlink="http://www.w3.org/1999/xlink">
    <!-- Generator: sketchtool 47.1 (45422) - http://www.bohemiancoding.com/sketch -->
    <title>071EA4D6-D6BB-427C-AAA0-66BE7B4A6582</title>
    <desc>Created with sketchtool.</desc>
    <defs></defs>
    <g id="Symbols" stroke="none" stroke-width="1" fill="none" fill-rule="evenodd">
        <g id="icon/g+" fill="#3C3B3B">
            <g id="google-plus" transform="translate(8.000000, 8.000000)">
                <g id="Group-3">
                    <path d="M10.9372109,12.0844218 L15.807551,12.0844218 C14.9526531,14.5014286 12.6372789,16.2343537 9.92659864,16.2143537 C6.63755102,16.190068 3.91795918,13.5589116 3.79027211,10.2722449 C3.65340136,6.74918367 6.47986395,3.83938776 9.97306122,3.83938776 C11.5702721,3.83938776 13.0278231,4.44795918 14.1266667,5.44517007 C14.3869388,5.68142857 14.7831293,5.68292517 15.0391156,5.44197279 L16.8279592,3.75836735 C17.1076871,3.49503401 17.1087075,3.05034014 16.8297959,2.78612245 C15.0871429,1.13517007 12.7494558,0.106122449 10.1715646,0.0557823129 C4.67319728,-0.0515646259 0.0385714286,4.45653061 0.000272108844,9.95585034 C-0.0383673469,15.4964626 4.44142857,20 9.97306122,20 C15.2927211,20 19.6384354,15.8347619 19.9295238,10.5878912 C19.9372789,10.5221088 19.942381,8.29891156 19.942381,8.29891156 L10.9372109,8.29891156 C10.5680952,8.29891156 10.2689116,8.59809524 10.2689116,8.96721088 L10.2689116,11.4161224 C10.2689116,11.7852381 10.5681633,12.0844218 10.9372109,12.0844218" id="Fill-1"></path>
                </g>
            </g>
        </g>
    </g>
</svg>