<?xml version="1.0" encoding="UTF-8"?>
<svg width="20px" height="20px" viewBox="0 0 20 20" version="1.1" xmlns="http://www.w3.org/2000/svg" xmlns:xlink="http://www.w3.org/1999/xlink">
    <!-- Generator: sketchtool 46.2 (44496) - http://www.bohemiancoding.com/sketch -->
    <title>91BF6F7F-7C87-478C-B6AF-3AE99245EFA2</title>
    <desc>Created with sketchtool.</desc>
    <defs></defs>
    <g id="Symbols" stroke="none" stroke-width="1" fill="none" fill-rule="evenodd">
        <g id="footer" transform="translate(-1061.000000, -516.000000)" fill="#FFFFFF">
            <g id="instagram" transform="translate(1061.000000, 516.000000)">
                <path d="M14.9644554,0.00297029703 L5.07544554,0.00297029703 C2.29930693,0.00297029703 0.040990099,2.26118812 0.040990099,5.03732673 L0.040990099,14.9263366 C0.040990099,17.7028713 2.29930693,19.9607921 5.07544554,19.9607921 L14.9644554,19.9607921 C17.7405941,19.9607921 19.9988119,17.7028713 19.9988119,14.9263366 L19.9988119,5.03732673 C19.9988119,2.26118812 17.7405941,0.00297029703 14.9644554,0.00297029703 L14.9644554,0.00297029703 Z M17.8272277,14.9263366 C17.8272277,16.5047525 16.5427723,17.7891089 14.9644554,17.7891089 L5.07544554,17.7891089 C3.4970297,17.7891089 2.21306931,16.5047525 2.21306931,14.9263366 L2.21306931,5.03732673 C2.21306931,3.45940594 3.4970297,2.1749505 5.07544554,2.1749505 L14.9644554,2.1749505 C16.5427723,2.1749505 17.8272277,3.4590099 17.8272277,5.03732673 L17.8272277,14.9263366 Z" id="Fill-2"></path>
                <path d="M15.3252475,5.90485149 C14.6542574,5.90485149 14.1089109,5.35910891 14.1089109,4.68851485 C14.1089109,4.01782178 14.6542574,3.47217822 15.3252475,3.47217822 C15.9959406,3.47217822 16.5415842,4.01782178 16.5415842,4.68851485 C16.5415842,5.35910891 15.9959406,5.90485149 15.3252475,5.90485149 L15.3252475,5.90485149 Z" id="Fill-3"></path>
                <path d="M10.019703,4.84168317 C7.18554455,4.84168317 4.87970297,7.14792079 4.87970297,9.98168317 C4.87970297,12.8158416 7.18554455,15.1220792 10.019703,15.1220792 C12.8538614,15.1220792 15.159703,12.8158416 15.159703,9.98168317 C15.159703,7.14792079 12.8538614,4.84168317 10.019703,4.84168317 L10.019703,4.84168317 Z M10.019703,12.950396 C8.38376238,12.950396 7.05138614,11.6184158 7.05138614,9.98168317 C7.05138614,8.34564356 8.38376238,7.01405941 10.019703,7.01405941 C11.6564356,7.01405941 12.9877228,8.34564356 12.9877228,9.98168317 C12.9877228,11.6184158 11.6564356,12.950396 10.019703,12.950396 L10.019703,12.950396 Z" id="Fill-4"></path>
            </g>
        </g>
    </g>
</svg>