<?xml version="1.0" encoding="UTF-8"?>
<svg width="36px" height="36px" viewBox="0 0 36 36" version="1.1" xmlns="http://www.w3.org/2000/svg" xmlns:xlink="http://www.w3.org/1999/xlink">
    <!-- Generator: sketchtool 47.1 (45422) - http://www.bohemiancoding.com/sketch -->
    <title>4DDF90A4-94BB-4BF6-B392-A4C14983D5DA</title>
    <desc>Created with sketchtool.</desc>
    <defs></defs>
    <g id="Symbols" stroke="none" stroke-width="1" fill="none" fill-rule="evenodd">
        <g id="icon/link" stroke="#3C3B3B" stroke-width="0.4" fill="#3C3B3B">
            <g id="link" transform="translate(8.000000, 8.000000)">
                <path d="M18.5034615,1.50038462 C16.9169231,-0.0888461538 14.3357692,-0.0903846154 12.7507692,1.50038462 L9.18884615,5.07461538 C8.94538462,5.31807692 8.94538462,5.71307692 9.18884615,5.95653846 C9.43192308,6.2 9.82423077,6.2 10.0676923,5.95653846 L13.6284615,2.38230769 C14.7296154,1.27807692 16.5219231,1.27807692 17.6246154,2.38230769 C18.7246154,3.48653846 18.7246154,5.285 17.6246154,6.38923077 L12.9192308,11.1084615 C12.3857692,11.6430769 11.6765385,11.9392308 10.9223077,11.9392308 C10.1684615,11.9392308 9.45769231,11.6430769 8.92423077,11.1084615 C8.68076923,10.865 8.28884615,10.865 8.04538462,11.1084615 C7.80346154,11.3519231 7.80346154,11.7469231 8.04538462,11.9903846 C8.81461538,12.7611538 9.83461538,13.1861538 10.9223077,13.1861538 C12.0088462,13.1861538 13.0288462,12.7611538 13.7980769,11.9903846 L18.5034615,7.27115385 C20.0884615,5.68038462 20.0884615,3.09153846 18.5034615,1.50038462 Z" id="Fill-1"></path>
                <path d="M9.54307692,14.4315385 L6.06230769,17.9234615 C5.53038462,18.4580769 4.81961538,18.7526923 4.06538462,18.7526923 C3.31115385,18.7526923 2.60076923,18.4580769 2.06884615,17.9234615 C0.967692308,16.8176923 0.967692308,15.0207692 2.06884615,13.9165385 L6.77269231,9.19730769 C7.87576923,8.09307692 9.66653846,8.09307692 10.7676923,9.19730769 C11.0111538,9.44076923 11.4030769,9.44076923 11.6465385,9.19730769 C11.89,8.95384615 11.89,8.55884615 11.6465385,8.31538462 C10.0615385,6.72423077 7.48038462,6.72423077 5.89384615,8.31538462 L1.19,13.0346154 C-0.396538462,14.6253846 -0.396538462,17.2142308 1.19,18.8053846 C1.95769231,19.5757692 2.97923077,19.9996154 4.06538462,19.9996154 C5.15192308,19.9996154 6.17346154,19.5757692 6.94115385,18.8053846 L10.4223077,15.3134615 C10.6642308,15.0703846 10.6642308,14.675 10.4223077,14.4315385 C10.1788462,14.1884615 9.785,14.1884615 9.54307692,14.4315385 Z" id="Fill-3"></path>
            </g>
        </g>
    </g>
</svg>