<?xml version="1.0" encoding="utf-8"?>
<!-- Generator: Adobe Illustrator 20.1.0, SVG Export Plug-In . SVG Version: 6.00 Build 0)  -->
<svg version="1.1" id="Layer_1" xmlns="http://www.w3.org/2000/svg" xmlns:xlink="http://www.w3.org/1999/xlink" x="0px" y="0px"
	 viewBox="0 0 51 63" style="enable-background:new 0 0 51 63;" xml:space="preserve">
<style type="text/css">
	.st0{fill:#FFFFFF;}
	.st1{fill:#3C3B3B;}
</style>
<title>Asset 21</title>
<desc>Created with Sketch.</desc>
<g id="web">
	<g id="Services-" transform="translate(-522.000000, -1344.000000)">
		<g id="Asset-21" transform="translate(522.000000, 1344.000000)">
			<path id="Rectangle-path" class="st0" d="M2.1,0.8h46.4c0.7,0,1.3,0.6,1.3,1.4v58c0,0.7-0.6,1.3-1.3,1.3H2.1
				c-0.7,0-1.3-0.6-1.3-1.3v-58C0.8,1.4,1.4,0.8,2.1,0.8z"/>
			<path id="Shape" class="st1" d="M47.8,62.3H2.9C1.3,62.3,0,61,0,59.5V2.8C0,1.3,1.3,0,2.9,0h44.9c1.6,0,2.9,1.3,2.9,2.8v56.6
				C50.7,61,49.4,62.3,47.8,62.3z M2.9,1.5c-0.7,0-1.3,0.6-1.3,1.3v56.6c0,0.7,0.6,1.3,1.3,1.3h44.9c0.7,0,1.3-0.6,1.3-1.3V2.8
				c0-0.7-0.6-1.3-1.3-1.3H2.9z"/>
			<path id="Shape_1_" class="st1" d="M42.5,34.7H21.5c-0.4,0-0.8-0.3-0.8-0.8s0.3-0.8,0.8-0.8h21.1c0.4,0,0.8,0.3,0.8,0.8
				S43,34.7,42.5,34.7z"/>
			<path id="Shape_2_" class="st1" d="M10.9,36c-0.2,0-0.4-0.1-0.5-0.2l-2.8-2.8c-0.3-0.3-0.3-0.8,0-1.1c0.3-0.3,0.8-0.3,1.1,0
				l2.2,2.2l4.4-4.3c0.3-0.3,0.8-0.3,1.1,0c0.3,0.3,0.3,0.8,0,1.1l-4.9,4.8C11.4,36,11.1,36.1,10.9,36z"/>
			<path id="Shape_3_" class="st1" d="M39,43.6H21.5c-0.4,0-0.8-0.3-0.8-0.8s0.3-0.8,0.8-0.8H39c0.4,0,0.8,0.3,0.8,0.8
				S39.5,43.6,39,43.6z"/>
			<path id="Shape_4_" class="st1" d="M10.9,45c-0.2,0-0.4-0.1-0.5-0.2L7.6,42c-0.3-0.3-0.3-0.8,0-1.1c0.3-0.3,0.8-0.3,1.1,0
				l2.2,2.2l4.4-4.3c0.3-0.3,0.8-0.3,1.1,0s0.3,0.8,0,1.1l-4.9,4.8C11.4,45,11.1,45,10.9,45z"/>
			<path id="Shape_5_" class="st1" d="M34.8,52.6H21.5c-0.4,0-0.8-0.3-0.8-0.8s0.3-0.8,0.8-0.8h13.3c0.4,0,0.8,0.3,0.8,0.8
				S35.2,52.6,34.8,52.6z"/>
			<path id="Shape_6_" class="st1" d="M10.9,54c-0.2,0-0.4-0.1-0.5-0.2L7.6,51c-0.3-0.3-0.3-0.8,0-1.1c0.3-0.3,0.8-0.3,1.1,0
				l2.2,2.2l4.4-4.3c0.3-0.3,0.8-0.3,1.1,0c0.3,0.3,0.3,0.8,0,1.1l-4.9,4.8C11.4,53.9,11.1,54,10.9,54z"/>
			<path id="Shape_7_" class="st0" d="M34,13V14c0,1.4-1.2,2.6-2.6,2.6c-1.4,0-2.6-1.1-2.6-2.6v-1.5"/>
			<path id="Shape_8_" class="st1" d="M31.4,17.2c-0.9,0-1.7-0.3-2.3-0.9s-1-1.4-1-2.3v-1.5c0-0.3,0.3-0.6,0.6-0.6s0.6,0.3,0.6,0.6
				V14c0,0.7,0.4,1.3,1,1.7c0.6,0.3,1.4,0.3,2,0c0.6-0.3,1-1,1-1.7V13c0-0.3,0.3-0.6,0.6-0.6c0.3,0,0.6,0.3,0.6,0.6V14
				C34.6,15.8,33.1,17.2,31.4,17.2z"/>
			<path id="Shape_9_" class="st0" d="M33.6,18.1c2.4,0.3,4.1,2.3,4.1,4.7v0.4c0,0.4-0.3,0.7-0.7,0.7H25.8c-0.4,0-0.7-0.3-0.7-0.7
				v-0.4c0-2.4,1.8-4.4,4.1-4.7l2.2,2.2L33.6,18.1z"/>
			<path id="Shape_10_" class="st1" d="M36.9,24.6H25.8c-0.8,0-1.4-0.6-1.4-1.4v-0.4c0-2.7,2-4.9,4.7-5.3c0.2,0,0.4,0,0.5,0.2
				l1.7,1.7l1.7-1.7c0.1-0.1,0.3-0.2,0.5-0.2c2.7,0.4,4.7,2.6,4.7,5.3v0.4c0,0.4-0.1,0.7-0.4,1S37.3,24.6,36.9,24.6z M29,18.8
				c-1.9,0.4-3.3,2.1-3.3,4v0.4c0,0.1,0.1,0.1,0.1,0.1h11.1c0.1,0,0.1-0.1,0.1-0.1v-0.4c0-1.9-1.4-3.6-3.3-4l-2,1.9
				c-0.1,0.1-0.3,0.2-0.4,0.2s-0.3-0.1-0.4-0.2L29,18.8z"/>
			<path id="Shape_11_" class="st0" d="M34,13v-0.7c0-0.8-0.7-1.5-1.6-1.5V9.7l-2.1,0.4c-0.9,0.2-1.6,1-1.6,2V13"/>
			<path id="Shape_12_" class="st1" d="M34,13.6c-0.3,0-0.6-0.3-0.6-0.6v-0.7c0-0.5-0.4-0.8-0.9-0.8c-0.3,0-0.6-0.3-0.6-0.6v-0.4
				l-1.3,0.3c-0.6,0.2-1.1,0.7-1.1,1.4V13c0,0.3-0.3,0.6-0.6,0.6s-0.6-0.3-0.6-0.6V12c0-1.2,0.9-2.3,2.1-2.6l2.1-0.4
				c0.2,0,0.4,0,0.5,0.1s0.2,0.3,0.2,0.5v0.6c0.9,0.2,1.6,1.1,1.6,2V13c0,0.2-0.1,0.3-0.2,0.5C34.3,13.5,34.2,13.6,34,13.6z"/>
			<path id="Shape_13_" class="st0" d="M34,13.7c0-0.8-0.7-1.5-1.6-1.5h-2.2"/>
			<path id="Shape_14_" class="st1" d="M34,14.3c-0.3,0-0.6-0.3-0.6-0.6c0-0.5-0.4-0.8-0.9-0.8h-2.2c-0.3,0-0.6-0.3-0.6-0.6
				c0-0.3,0.3-0.6,0.6-0.6h2.2c0.6,0,1.1,0.2,1.5,0.6s0.6,0.9,0.6,1.5C34.6,14,34.3,14.3,34,14.3z"/>
			<path id="Shape_15_" class="st0" d="M29.1,11.6c0.3,0.4,0.7,0.6,1.2,0.6"/>
			<path id="Shape_16_" class="st1" d="M30.3,12.8c-0.7,0-1.3-0.3-1.7-0.8c-0.1-0.2-0.2-0.4-0.1-0.6c0.1-0.2,0.3-0.3,0.5-0.4
				c0.2,0,0.4,0.1,0.6,0.2c0.2,0.2,0.4,0.3,0.7,0.3c0.2,0,0.4,0.1,0.5,0.3s0.1,0.4,0,0.6S30.5,12.8,30.3,12.8L30.3,12.8z"/>
			<ellipse id="Oval" class="st0" cx="5" cy="5.9" rx="1.4" ry="1.4"/>
			<path id="Shape_17_" class="st1" d="M5,7.9c-1.1,0-2-0.9-2-2s0.9-2,2-2s2,0.9,2,2S6.1,7.9,5,7.9L5,7.9z M5,5.2
				c-0.4,0-0.8,0.3-0.8,0.8c0,0.4,0.3,0.8,0.8,0.8c0.4,0,0.8-0.3,0.8-0.8C5.8,5.5,5.4,5.2,5,5.2z"/>
		</g>
	</g>
</g>
</svg>
