<?xml version="1.0" encoding="UTF-8"?>
<svg width="48px" height="30px" viewBox="0 0 48 30" version="1.1" xmlns="http://www.w3.org/2000/svg" xmlns:xlink="http://www.w3.org/1999/xlink">
    <!-- Generator: sketchtool 46.2 (44496) - http://www.bohemiancoding.com/sketch -->
    <title>C4DDF85B-B988-49D0-B715-A7F483244457</title>
    <desc>Created with sketchtool.</desc>
    <defs></defs>
    <g id="Symbols" stroke="none" stroke-width="1" fill="none" fill-rule="evenodd">
        <g id="footer" transform="translate(-1136.000000, -372.000000)" fill="#FFFFFF">
            <g id="mastercard" transform="translate(1136.000000, 372.000000)">
                <path d="M25.2748672,4.11886586 C24.8947673,3.71123205 24.4474956,3.4118529 24.0363699,3.0139726 L24.0242466,3.01253425 C26.5245205,1.14390411 29.6180137,0.0242465753 32.9778082,0.0242465753 C41.2571918,0.0242465753 47.9658904,6.73438356 47.9658904,15.0121233 C47.9658904,23.289863 41.2555479,30 32.9778082,30 C29.6010806,30 26.4903928,28.8797977 23.986654,26.9946727 C21.4802983,28.8816609 18.3625765,30 14.9831507,30 C6.70705479,30 0,23.289863 0,15.0121233 C0,6.73438356 6.70849315,0.0242465753 14.9831507,0.0242465753 C18.9685384,0.0242465753 22.590574,1.5805984 25.2748672,4.11886586 Z M25.2748672,4.11886586 C25.3488024,4.19815674 25.420196,4.28154355 25.4882877,4.37054795 L22.3707534,4.42027397 C21.8827397,4.91321918 21.4372603,5.45013699 21.0174658,6.00719178 L26.514863,6.00719178 C26.9330137,6.50958904 27.3199315,6.94541096 27.6706849,7.5 L20.0206849,7.5 C19.740411,7.98246575 19.4813014,8.47849315 19.254863,8.99465753 L28.5415068,8.99465753 C28.7847945,9.50835616 29.0015753,9.89671233 29.1860959,10.4410274 L18.705,10.4410274 C18.5389726,10.9580137 18.3959589,11.4869178 18.2884932,12.0263014 L29.6252055,12.0263014 C29.7359589,12.544726 29.8218493,13.024726 29.879589,13.5135616 L18.0636986,13.5135616 C18.0139726,14.0063014 17.9882877,14.5072603 17.9882877,15.0121233 L29.9654795,15.0121233 C29.9654795,15.5426712 29.9276712,16.0339726 29.8740411,16.5106849 L18.0636986,16.5106849 C18.1142466,17.0188356 18.1896575,17.5179452 18.2884932,18.0100685 L29.6075342,18.0100685 C29.490411,18.4956164 29.355411,18.9836301 29.1860959,19.4909589 L18.6704795,19.4909589 C18.8295205,20.0030137 19.0228767,20.5006849 19.2339041,20.9862329 L28.5415068,20.9862329 C28.2838356,21.5319863 27.9918493,21.9680137 27.6690411,22.4792466 L19.9941781,22.4792466 C20.2966438,23.0034247 20.6313699,23.5041781 20.9934247,23.9841781 L26.514863,24.0661644 C26.0445205,24.6312329 25.4408219,24.9715068 24.8903425,25.4658904 C24.9199315,25.4899315 24.0106849,25.4634247 22.2199315,25.4346575 C22.7669261,25.9991867 23.3576356,26.5210696 23.986654,26.9946727 C27.6188857,24.2600337 29.9671233,19.9110743 29.9671233,15.0121233 C29.9671233,10.7209588 28.1642505,6.85106648 25.2748672,4.11886586 Z" id="Combined-Shape"></path>
            </g>
        </g>
    </g>
</svg>