<?xml version="1.0" encoding="utf-8"?>
<!-- Generator: Adobe Illustrator 20.1.0, SVG Export Plug-In . SVG Version: 6.00 Build 0)  -->
<svg version="1.1" id="Layer_1" xmlns="http://www.w3.org/2000/svg" xmlns:xlink="http://www.w3.org/1999/xlink" x="0px" y="0px"
	 viewBox="0 0 70 60" style="enable-background:new 0 0 70 60;" xml:space="preserve">
<style type="text/css">
	.st0{fill:#FFFFFF;}
	.st1{fill:#3C3B3B;}
</style>
<title>Asset 26</title>
<desc>Created with Sketch.</desc>
<g id="web">
	<g id="Services-" transform="translate(-882.000000, -1608.000000)">
		<g id="Asset-26" transform="translate(882.000000, 1608.000000)">
			<path id="Shape" class="st0" d="M27.2,41.8C48,36.4,55.3,44,55.3,44c2.9,1.6,4.5,0.6,3.6-2.6l-3.7-13.9c1.6-1.5,2.2-3.8,1.6-5.8
				c-0.6-2.1-2.2-3.7-4.3-4.3L48.6,3.3c-0.9-3.2-2.9-3.5-4.4-0.6c0,0-2.5,10.2-23.2,15.7"/>
			<path id="Shape_1_" class="st1" d="M57.6,45.4c-1-0.1-1.9-0.3-2.7-0.8c-0.1,0-0.1-0.1-0.2-0.1c0,0-7.3-7.1-27.4-1.9
				c-0.3,0.1-0.5,0-0.7-0.2c-0.2-0.2-0.3-0.5-0.2-0.7c0.1-0.3,0.3-0.5,0.5-0.5c20-5.3,27.8,1.3,28.7,2.2c1.3,0.7,2.1,0.7,2.4,0.5
				s0.5-1,0.1-2.4l-3.8-13.9c-0.1-0.2,0-0.5,0.2-0.7c1.4-1.4,1.9-3.3,1.4-5.2c-0.5-1.8-2-3.3-3.8-3.8c-0.2-0.1-0.4-0.3-0.5-0.5
				L47.9,3.5c-0.5-1.5-1-2.1-1.5-2.1c-0.4,0-1,0.4-1.7,1.6C44.4,4.2,41.1,13.8,21,19.1c-0.3,0.1-0.5,0-0.7-0.2s-0.3-0.5-0.2-0.7
				s0.3-0.5,0.5-0.5c20.2-5.3,22.8-15,22.8-15.1c0-0.1,0-0.1,0-0.2C44.7,0.2,46,0,46.7,0c0.7,0,1.9,0.6,2.6,3.1l3.7,13.6
				c2.2,0.7,3.8,2.5,4.4,4.7s0,4.5-1.5,6.2l3.7,13.6c0.6,2.3,0,3.4-0.6,3.9C58.6,45.3,58.1,45.4,57.6,45.4z"/>
			<path id="Shape_2_" class="st0" d="M20.1,18.2l10,36.6c0.4,1.6-0.6,3.3-2.2,3.7s-3.3-0.5-3.8-2.1L21.4,46
				c-0.4-1.6-1.5-2.9-2.9-3.7c-1.4-0.8-3.1-1-4.7-0.6l-2.9,0.8c-1.6,0.4-3.3,0.2-4.7-0.6c-1.4-0.8-2.4-2.1-2.9-3.7l-2.4-8.7
				c-0.4-1.6-0.2-3.2,0.6-4.6s2.2-2.4,3.7-2.8L20.1,18.2z"/>
			<path id="Shape_3_" class="st1" d="M27.1,59.2c-1.7,0-3.2-1.1-3.7-2.8l-2.8-10.2c-0.8-2.9-3.8-4.5-6.7-3.8l-2.9,0.8
				c-1.8,0.5-3.7,0.2-5.3-0.7c-1.6-0.9-2.7-2.4-3.2-4.1l-2.4-8.7c-1-3.6,1.2-7.3,4.9-8.3l14.8-3.9c0.4-0.1,0.8,0.1,0.9,0.5l10,36.6
				c0.3,1,0.1,2-0.4,2.9C29.7,58.6,28.5,59.3,27.1,59.2L27.1,59.2z M15.4,40.8c3.1,0,5.8,2.1,6.7,5l2.8,10.2c0.2,0.9,1,1.6,2,1.8
				c1,0.1,1.9-0.3,2.4-1.2c0.3-0.5,0.4-1.2,0.2-1.7L19.6,19L5.5,22.8c-1.4,0.4-2.6,1.3-3.3,2.5c-0.7,1.2-0.9,2.7-0.5,4.1L4,38
				c0.4,1.4,1.3,2.5,2.5,3.3s2.7,0.9,4.1,0.5l2.9-0.8C14.2,40.9,14.8,40.8,15.4,40.8L15.4,40.8z"/>
			<path id="Shape_4_" class="st1" d="M60.1,15.2c-0.3,0-0.5-0.1-0.6-0.3s-0.1-0.5,0-0.7l3-5.7c0.1-0.3,0.3-0.4,0.6-0.5
				c0.3,0,0.5,0.1,0.7,0.4s0.1,0.5,0,0.8l-3,5.7C60.6,15,60.4,15.2,60.1,15.2z"/>
			<path id="Shape_5_" class="st1" d="M61.8,19.4c-0.4,0.1-0.8-0.2-0.8-0.6s0.2-0.8,0.6-0.8l7.4-2.5c0.2-0.1,0.5,0,0.7,0.1
				c0.2,0.2,0.3,0.4,0.2,0.7c0,0.3-0.2,0.5-0.5,0.5L62,19.4L61.8,19.4z"/>
			<path id="Shape_6_" class="st1" d="M68.4,25.9h-0.2l-6.1-1.4c-0.4-0.1-0.7-0.5-0.6-0.9c0.1-0.4,0.5-0.6,0.9-0.5l6.1,1.4
				c0.4,0,0.7,0.4,0.6,0.8C69.2,25.6,68.8,25.9,68.4,25.9z"/>
			<path id="Shape_7_" class="st0" d="M24.5,17.7l6.1,23.1"/>
			<path id="Shape_8_" class="st1" d="M30.6,41.4c-0.3,0-0.6-0.2-0.7-0.5l-6.1-23c-0.1-0.3,0-0.5,0.2-0.7c0.2-0.2,0.5-0.3,0.7-0.2
				s0.5,0.3,0.5,0.5l6.1,23.1c0,0.2,0,0.4-0.1,0.5s-0.3,0.3-0.4,0.3L30.6,41.4z"/>
			<path id="Shape_9_" class="st0" d="M22.3,49l5.3-1.5"/>
			<path id="Shape_10_" class="st1" d="M22.3,49.7c-0.4,0.1-0.8-0.2-0.8-0.6c-0.1-0.4,0.2-0.8,0.6-0.8l5.3-1.4
				c0.4-0.1,0.8,0.1,0.9,0.5c0.1,0.4-0.1,0.8-0.5,0.9l-5.3,1.4H22.3z"/>
		</g>
	</g>
</g>
</svg>
