<?xml version="1.0" encoding="utf-8"?>
<!-- Generator: Adobe Illustrator 20.1.0, SVG Export Plug-In . SVG Version: 6.00 Build 0)  -->
<svg version="1.1" id="Layer_1" xmlns="http://www.w3.org/2000/svg" xmlns:xlink="http://www.w3.org/1999/xlink" x="0px" y="0px"
	 viewBox="0 0 76 60" style="enable-background:new 0 0 76 60;" xml:space="preserve">
<style type="text/css">
	.st0{fill:#FFFFFF;}
	.st1{fill:#3C3B3B;}
</style>
<title>Asset 24</title>
<desc>Created with Sketch.</desc>
<g id="web">
	<g id="Services-" transform="translate(-880.000000, -830.000000)">
		<g id="Asset-24" transform="translate(880.000000, 830.000000)">
			<path id="Rectangle-path" class="st0" d="M2.1,0.8h71.1c0.7,0,1.3,0.6,1.3,1.3v21.4c0,0.7-0.6,1.3-1.3,1.3H2.1
				c-0.7,0-1.3-0.6-1.3-1.3V2.1C0.8,1.4,1.4,0.8,2.1,0.8z"/>
			<path id="Shape" class="st1" d="M72.5,25.6H2.9c-0.8,0-1.5-0.3-2.1-0.8S0,23.5,0,22.8V2.9C0,1.3,1.3,0,2.9,0h69.6
				c1.6,0,2.9,1.3,2.9,2.9v19.9C75.4,24.3,74.1,25.6,72.5,25.6L72.5,25.6z M2.9,1.6c-0.7,0-1.3,0.6-1.3,1.3v19.9
				c0,0.7,0.6,1.3,1.3,1.3h69.6c0.7,0,1.3-0.6,1.3-1.3V2.9c0-0.7-0.6-1.3-1.3-1.3H2.9z"/>
			<path id="Shape_1_" class="st0" d="M55,13.2v44c0,0.8-0.6,1.4-1.4,1.4H20.3c-0.8,0-1.4-0.6-1.4-1.4v-44"/>
			<path id="Shape_2_" class="st1" d="M53.6,59.4H20.3c-1.2,0-2.2-1-2.2-2.2v-44c0-0.4,0.4-0.8,0.8-0.8s0.8,0.4,0.8,0.8v44
				c0,0.3,0.3,0.6,0.6,0.6h33.3c0.3,0,0.6-0.3,0.6-0.6v-44c0-0.4,0.4-0.8,0.8-0.8c0.4,0,0.8,0.4,0.8,0.8v44
				C55.8,58.4,54.8,59.4,53.6,59.4z"/>
			<path id="Shape_3_" class="st1" d="M37.8,25.7c0.4,0,0.8,0,1.1,0v-1.6l1.5-1.5V26c3.4,1,5.9,3.8,6.4,7.2l-1.4,1.4
				c0-3.1-2-5.9-5-7v5.6L39,34.7v-7.4c-0.8-0.1-1.5-0.1-2.3,0v5.9l-1.5,1.5v-7c-3.5,1.3-5.5,4.8-4.8,8.3s3.8,6.2,7.5,6.2h7.6
				L44,43.6H28.7l1.5-1.5h2.6c-2.9-1.9-4.5-5.3-4-8.8c0.5-3.4,3-6.3,6.4-7.3v-1.9l1.5-1.5v3.1C37.1,25.7,37.4,25.7,37.8,25.7
				L37.8,25.7z"/>
			<path id="Shape_4_" class="st1" d="M31.6,54.1h-6.7c-0.4,0-0.8-0.4-0.8-0.8c0-0.4,0.4-0.8,0.8-0.8h6.7c0.4,0,0.8,0.4,0.8,0.8
				C32.4,53.8,32.1,54.1,31.6,54.1z"/>
			<path id="Shape_5_" class="st1" d="M49,54.1H34.5c-0.4,0-0.8-0.4-0.8-0.8c0-0.4,0.4-0.8,0.8-0.8H49c0.4,0,0.8,0.4,0.8,0.8
				C49.8,53.8,49.4,54.1,49,54.1z"/>
			<path id="Shape_6_" class="st1" d="M63.6,13.6H11.8c-0.4,0-0.8-0.4-0.8-0.8s0.4-0.8,0.8-0.8h51.8c0.4,0,0.8,0.4,0.8,0.8
				S64,13.6,63.6,13.6L63.6,13.6z"/>
		</g>
	</g>
</g>
</svg>
