<svg fill='' version="1.1" id="Layer_1" xmlns="http://www.w3.org/2000/svg" xmlns:xlink="http://www.w3.org/1999/xlink" x="0px" y="0px" viewBox="0 0 18.1 18.8" xml:space="preserve">
<path d="M17.9,17.7l-4.8-5l0.1-0.3c1.2-1.3,1.8-3.1,1.8-4.8C15,3.4,11.6,0,7.5,0S0,3.4,0,7.5C0,11.6,3.4,15,7.5,15
	c1.6,0,3.1-0.5,4.3-1.3l0.3-0.1l4.8,5c0.1,0.1,0.4,0.2,0.5,0.2s0.3,0,0.4-0.2l0,0c0.1-0.1,0.2-0.3,0.2-0.5
	C18.2,18,18.1,17.8,17.9,17.7z M7.6,13.7c-3.3,0-6.1-2.8-6.1-6.1s2.8-6.1,6.1-6.1s6.1,2.8,6.1,6.1C13.7,10.9,11,13.7,7.6,13.7z"></path>
</svg>