<svg  version="1.1" id="Layer_1" xmlns="http://www.w3.org/2000/svg" xmlns:xlink="http://www.w3.org/1999/xlink" x="0px" y="0px" viewBox="0 0 15.1 15.2" style="enable-background:new 0 0 15.1 15.2;" xml:space="preserve">
<path d="M0.7,15.1c0.2,0,0.4-0.1,0.5-0.2l6.4-6.4l0.1,0.1l6.2,6.3c0.3,0.3,0.7,0.3,1,0c0.2-0.2,0.2-0.3,0.2-0.5S15,14,14.9,13.9
	L8.5,7.6l0.1-0.1l6.3-6.3c0.1-0.1,0.2-0.3,0.2-0.5S15,0.3,14.9,0.2l0,0c-0.3-0.3-0.7-0.3-1,0L7.6,6.6L1.2,0.2c-0.3-0.3-0.7-0.3-1,0
	C0.1,0.3,0,0.5,0,0.7s0.1,0.4,0.2,0.5l6.4,6.4L6.5,7.7l-6.3,6.2c-0.3,0.3-0.3,0.7,0,1C0.3,15,0.5,15.1,0.7,15.1z"></path>
</svg>