<?xml version="1.0" encoding="utf-8"?>
<!-- Generator: Adobe Illustrator 21.1.0, SVG Export Plug-In . SVG Version: 6.00 Build 0)  -->
<svg version="1.1" id="Layer_1" xmlns="http://www.w3.org/2000/svg" xmlns:xlink="http://www.w3.org/1999/xlink" x="0px" y="0px"
	 viewBox="0 0 27.7 28.2" style="enable-background:new 0 0 27.7 28.2;" xml:space="preserve">
<style type="text/css">
	.st0{fill:#65E9D1;}
</style>
<g>
	<path style="fill:#000;"  class="st0" d="M16.6,26.5c-0.6,0.6-1.5,0.6-2,0l-1.1-1.1l-0.9-0.9l-0.2-0.2l1.3-1.3c-0.3-0.3-0.6-0.6-0.8-1l-1.4,1.4
		l-9.8-9.7c-0.3-0.3-0.4-0.6-0.4-1s0.2-0.8,0.4-1l1.1-1.1c1.3,0.7,3,0.5,4.1-0.6s1.3-2.7,0.6-4.1l1.1-1.1c0.6-0.6,1.5-0.6,2,0
		l2.1,2.1V5.2l-1.3-1.3c-1.1-1.1-2.8-1.1-3.8,0L6.2,5.3C6,5.5,6,5.9,6.1,6.1C6.8,7,6.7,8.2,5.9,9S3.9,9.9,3,9.2C2.8,9,2.4,9,2.2,9.3
		l-1.4,1.4c-1.1,1.1-1.1,2.8,0,3.8l12.9,12.9c1.1,1.1,2.8,1.1,3.8,0l3.8-3.8h-1.8L16.6,26.5z"/>
	<path style="fill:#000;" class="st0" d="M25,0h-2c-0.3,0-0.6,0.3-0.6,0.5c-0.1,1.1-1.1,1.9-2.2,1.9c-1.1,0-2.1-0.8-2.2-1.9c0-0.3-0.3-0.6-0.6-0.5h-2
		c-1.6,0-2.8,1.2-2.7,2.7v2.5v1.7v14c0,0.4,0.1,0.7,0.2,1c0.2,0.4,0.4,0.8,0.8,1c0.5,0.4,1.1,0.6,1.7,0.6h4.1h1.8H25
		c1.6,0,2.8-1.2,2.7-2.7V2.6C27.7,1.1,26.5-0.1,25,0z M26.5,21c0,0.7-0.6,1.3-1.5,1.3h-2.5h-1.8h-0.1h-5.3c-0.3,0-0.6-0.1-0.8-0.2
		c-0.4-0.3-0.6-0.7-0.6-1.2l0,0V8.2V8.1V6.5V6.4V2.7c0-0.4,0.1-0.7,0.4-1s0.7-0.4,1-0.4h1.6c0.4,1.4,1.8,2.5,3.3,2.5
		c1.6,0,2.8-1,3.3-2.5h1.6c0.8,0,1.5,0.6,1.4,1.4V21L26.5,21z"/>
</g>
</svg>
