<?xml version="1.0" encoding="UTF-8"?>
<svg width="78px" height="24px" viewBox="0 0 78 24" version="1.1" xmlns="http://www.w3.org/2000/svg" xmlns:xlink="http://www.w3.org/1999/xlink">
    <!-- Generator: sketchtool 46.2 (44496) - http://www.bohemiancoding.com/sketch -->
    <title>12427F87-976C-494B-ABB7-137AE268A63D</title>
    <desc>Created with sketchtool.</desc>
    <defs></defs>
    <g id="Symbols" stroke="none" stroke-width="1" fill="none" fill-rule="evenodd">
        <g id="footer" transform="translate(-1032.000000, -375.000000)" fill="#FFFFFF">
            <path d="M1104.82913,375.421696 L1099.93583,375.421696 C1098.41609,375.421696 1097.27731,375.835243 1096.61727,377.354978 L1087.20346,398.657754 L1093.85485,398.657754 C1093.85485,398.657754 1094.94474,395.793481 1095.19328,395.163993 C1095.91648,395.163993 1102.38655,395.18029 1103.3094,395.18029 C1103.49274,395.993125 1104.07334,398.657754 1104.07334,398.657754 L1109.95467,398.657754 L1104.82913,375.421696 Z M1097.01451,390.413293 C1097.54011,389.076903 1099.53654,383.912656 1099.53654,383.912656 C1099.50598,383.975809 1100.05399,382.568118 1100.37993,381.692131 L1100.80978,383.698752 C1100.80978,383.698752 1102.01986,389.243952 1102.27451,390.413293 L1097.01451,390.413293 Z M1087.64757,391.050929 C1087.60071,395.88108 1083.27986,399 1076.61828,399 C1073.77846,398.969442 1071.04049,398.411255 1069.55335,397.759358 L1070.4436,392.554367 L1071.26254,392.929208 C1073.34861,393.797046 1074.69315,394.145404 1077.23147,394.145404 C1079.05475,394.145404 1081.00433,393.430354 1081.01859,391.869875 C1081.02674,390.851286 1080.19964,390.128088 1077.73262,388.989305 C1075.33079,387.874968 1072.14668,386.012987 1072.18742,382.672014 C1072.21798,378.151515 1076.63458,375 1082.89687,375 C1085.34963,375 1087.31347,375.501146 1088.57245,375.977846 L1087.71276,381.015788 L1087.13827,380.744843 C1085.97708,380.276292 1084.47364,379.822002 1082.39572,379.854596 C1079.92055,379.854596 1078.76751,380.889483 1078.76751,381.85918 C1078.75936,382.940922 1080.11204,383.666157 1082.32442,384.73975 C1085.98523,386.395977 1087.68016,388.408709 1087.64757,391.050929 L1087.64757,391.050929 Z M1032,375.668195 L1032.07945,375.199643 L1041.9068,375.199643 C1043.22893,375.246499 1044.29437,375.668195 1044.66921,377.084034 L1046.80214,387.357525 C1044.69977,381.987522 1039.64757,377.513878 1032,375.668195 L1032,375.668195 Z M1060.65495,375.421696 L1050.67685,398.627196 L1043.96842,398.635345 L1038.29488,379.249554 C1042.37739,381.85918 1045.8467,385.99669 1047.07105,388.885409 L1047.73313,391.281131 L1053.94041,375.421696 L1060.65495,375.421696 Z M1063.21772,375.39725 L1069.55335,375.39725 L1065.589,398.649605 L1059.25541,398.649605 L1063.21772,375.39725 Z" id="Fill-1"></path>
        </g>
    </g>
</svg>